<svg width="15" height="15" viewBox="0 0 15 15" fill="none" xmlns="http://www.w3.org/2000/svg">
<path d="M15.001 7.49942C15.001 8.58252 15.001 9.66563 15.001 10.7487C14.9936 11.5973 14.7295 12.4236 14.2436 13.1191C13.7577 13.8146 13.0728 14.3467 12.2789 14.6452C11.6035 14.8974 10.886 15.0172 10.1654 14.998C8.28773 14.998 6.41007 14.998 4.53242 14.998C3.62379 15.0188 2.73022 14.7634 1.96974 14.2654C1.05087 13.6963 0.390145 12.7909 0.128022 11.742C0.052703 11.4215 0.0135277 11.0936 0.0112305 10.7645C0.0112305 8.62971 0.0112305 6.49496 0.0112305 4.34898C0.0112305 3.2479 0.318932 2.25917 1.10278 1.46145C1.84328 0.661796 2.84903 0.158671 3.93274 0.0457779C4.60654 -0.0148939 5.28034 0.00308295 5.94066 0.000835844C7.37361 0.000835844 8.8088 0.000835844 10.244 0.000835844C11.2165 0.000835844 12.1508 0.158133 12.9819 0.697438C13.9035 1.24813 14.577 2.13367 14.8618 3.16925C14.9478 3.5224 14.9922 3.88439 14.9943 4.24786C15.01 5.33096 14.9943 6.41407 14.9943 7.49717L15.001 7.49942ZM1.13423 7.49942C1.13423 8.59376 1.13423 9.68585 1.13423 10.7802C1.13423 12.0498 1.80803 12.9104 2.88611 13.4992C3.41029 13.7638 3.99287 13.8913 4.57959 13.87C6.51339 13.87 8.44719 13.87 10.381 13.87C11.053 13.8816 11.7156 13.7115 12.2991 13.3778C13.3143 12.7891 13.8713 11.9217 13.8713 10.742C13.8847 8.55106 13.8892 6.36014 13.8713 4.16697C13.8713 2.87039 13.1368 2.01424 12.0296 1.44572C11.5314 1.20929 10.9836 1.09674 10.4327 1.11765C8.51008 1.11765 6.58751 1.11765 4.66269 1.11765C4.04655 1.1015 3.43583 1.23651 2.88386 1.51089C1.80803 2.07042 1.15893 2.94229 1.13423 4.18944C1.10728 5.29276 1.13423 6.39609 1.13423 7.49942Z" fill="#373334"/>
<path d="M1.13423 7.49942V10.7802C1.13423 12.0498 1.80803 12.9104 2.88611 13.4992C3.41029 13.7638 3.99287 13.8913 4.57959 13.87H10.381C11.053 13.8816 11.7156 13.7115 12.2991 13.3778C13.3143 12.7891 13.8713 11.9217 13.8713 10.742C13.8847 8.55106 13.8892 6.36014 13.8713 4.16697C13.8713 2.87039 13.1368 2.01424 12.0296 1.44572C11.5314 1.20929 10.9836 1.09674 10.4327 1.11765H4.66269C4.04655 1.1015 3.43583 1.23651 2.88386 1.51089C1.80803 2.07042 1.15893 2.94229 1.13423 4.18944C1.10728 5.29276 1.13423 6.39609 1.13423 7.49942Z" fill="#373334"/>
<path d="M7.51262 10.7035C6.82742 10.6933 6.16053 10.4807 5.59584 10.0922C5.03115 9.70381 4.59386 9.157 4.33899 8.52058C4.08411 7.88415 4.02303 7.18654 4.16342 6.51547C4.30381 5.8444 4.63941 5.22985 5.128 4.74911C5.61658 4.26838 6.23635 3.94293 6.90934 3.81369C7.58233 3.68446 8.27849 3.75721 8.91025 4.0228C9.54202 4.28839 10.0812 4.73496 10.4599 5.30634C10.8387 5.87772 11.0401 6.54839 11.0388 7.234C11.0282 8.161 10.6514 9.04613 9.99072 9.69616C9.33007 10.3462 8.4392 10.7083 7.51262 10.7035V10.7035ZM5.11614 7.22726C5.10722 7.70462 5.24055 8.17383 5.49913 8.57509C5.75772 8.97636 6.12986 9.29152 6.56813 9.48042C7.0064 9.66931 7.49096 9.72339 7.96005 9.63575C8.42915 9.54811 8.86155 9.32273 9.20216 8.98833C9.54276 8.65393 9.77615 8.22564 9.87257 7.75805C9.969 7.29046 9.92411 6.80473 9.74361 6.36276C9.56311 5.92079 9.25518 5.54259 8.85906 5.27635C8.46294 5.01011 7.99656 4.86788 7.51935 4.8678C6.88899 4.86536 6.28309 5.11175 5.83317 5.55348C5.38324 5.99521 5.12559 6.59665 5.11614 7.22726V7.22726Z" fill="white"/>
<path d="M12.1868 3.45884C12.1815 3.60398 12.1336 3.74435 12.0491 3.86242C11.9645 3.98049 11.8471 4.07102 11.7115 4.12273C11.5758 4.17443 11.4279 4.18501 11.2863 4.15315C11.1447 4.12128 11.0155 4.04839 10.9151 3.94356C10.8146 3.83873 10.7472 3.70661 10.7213 3.5637C10.6954 3.42078 10.7122 3.27341 10.7695 3.13997C10.8268 3.00653 10.9222 2.89293 11.0436 2.81337C11.1651 2.7338 11.3072 2.69179 11.4524 2.69258C11.6502 2.70015 11.8374 2.78428 11.9744 2.92723C12.1114 3.07018 12.1876 3.26078 12.1868 3.45884V3.45884Z" fill="white"/>
</svg>
