<svg id="search" width="18" height="18" viewBox="0 0 18 18"  xmlns="http://www.w3.org/2000/svg">
<path d="M13.2125 11.6186C14.0977 10.409 14.6272 8.92328 14.6272 7.31261C14.6272 3.28064 11.3488 0.00012207 7.31955 0.00012207C3.29027 0.00012207 0.0119629 3.28064 0.0119629 7.31261C0.0119629 11.3446 3.2903 14.6251 7.31958 14.6251C8.92918 14.6251 10.4141 14.0952 11.6229 13.2094L16.4102 18L18 16.4092C18 16.4092 13.2125 11.6186 13.2125 11.6186V11.6186ZM7.31958 12.3751C4.52982 12.3751 2.26048 10.1042 2.26048 7.31261C2.26048 4.52098 4.52982 2.25013 7.31958 2.25013C10.1094 2.25013 12.3787 4.52098 12.3787 7.31261C12.3787 10.1042 10.1093 12.3751 7.31958 12.3751Z"/>
</svg>
