<svg width="19" height="11" viewBox="0 0 19 11" fill="none" xmlns="http://www.w3.org/2000/svg">
<path d="M10.7449 2.78914C10.7449 3.24463 10.7265 3.67395 10.7239 4.09803C10.7182 4.32934 10.7456 4.56028 10.8053 4.78388C10.8414 4.92661 10.9224 5.05409 11.0363 5.14775C11.0644 5.16981 11.0975 5.18488 11.1326 5.19171C11.1678 5.19853 11.204 5.19693 11.2384 5.18702C11.3611 5.14796 11.4733 5.08174 11.5666 4.9933C11.7911 4.78701 11.9934 4.55803 12.1705 4.31007C12.7982 3.44347 13.3159 2.50263 13.7116 1.50905C13.7824 1.34152 13.8507 1.1766 13.9163 1.00644C13.9633 0.876393 14.0568 0.768241 14.1789 0.70278C14.2553 0.674728 14.3364 0.661403 14.4178 0.663513C14.4545 0.663513 14.4939 0.663513 14.5333 0.663513H17.1587C17.3372 0.663513 17.5157 0.663513 17.6838 0.663513C17.7741 0.67511 17.8624 0.698888 17.9463 0.734193C18.0144 0.754001 18.0738 0.795945 18.1152 0.853345C18.1566 0.910745 18.1775 0.980302 18.1747 1.05094C18.1747 1.23066 18.139 1.4086 18.0697 1.5745C17.8937 1.99947 17.6718 2.40411 17.4081 2.78129C16.9171 3.52997 16.3579 4.22891 15.8329 4.94357C15.657 5.18178 15.4916 5.42785 15.334 5.67654C15.2408 5.81417 15.1981 5.97971 15.2133 6.14512C15.2357 6.30534 15.3093 6.45407 15.4233 6.5692C15.615 6.77339 15.8092 6.97495 16.014 7.16605C16.5626 7.65436 17.0775 8.17911 17.5551 8.73671C17.7778 9.00143 17.9697 9.29033 18.1274 9.59796C18.1662 9.68099 18.1927 9.76916 18.2062 9.85974C18.23 9.95989 18.2205 10.065 18.1794 10.1594C18.1382 10.2538 18.0675 10.3323 17.9778 10.3833C17.8023 10.4938 17.5999 10.5545 17.3923 10.5587C16.6178 10.5796 15.8434 10.5744 15.0715 10.6189C14.5751 10.643 14.0883 10.4762 13.7116 10.1529C13.4271 9.91973 13.1635 9.66221 12.9239 9.3833C12.6614 9.09797 12.4172 8.81001 12.1363 8.53776C12.017 8.42091 11.8818 8.32134 11.7346 8.24195C11.6403 8.18437 11.5285 8.16223 11.4192 8.1795C11.31 8.19678 11.2105 8.25234 11.1387 8.33619C11.0087 8.49244 10.9178 8.67728 10.8735 8.87546C10.7893 9.17751 10.7426 9.48874 10.7344 9.80215C10.7304 9.88015 10.7225 9.95791 10.7107 10.0351C10.696 10.1341 10.6537 10.2271 10.5888 10.3034C10.5238 10.3797 10.4388 10.4364 10.3432 10.4671C10.2159 10.5202 10.0794 10.5477 9.94151 10.5482C9.59496 10.5482 9.24841 10.5482 8.89135 10.5482C8.27965 10.5412 7.67414 10.425 7.10347 10.2053C6.07297 9.8182 5.15092 9.18972 4.41508 8.37284C3.68488 7.57185 3.03424 6.70217 2.4723 5.77602C1.58225 4.3372 0.792761 2.8389 0.109459 1.29178C0.0648612 1.18973 0.0476702 1.07786 0.059577 0.967174C0.062098 0.925792 0.0759002 0.88588 0.0994955 0.851743C0.123091 0.817606 0.155584 0.790539 0.193471 0.773459C0.322927 0.708281 0.465884 0.674214 0.610907 0.673984H3.22053C3.37529 0.684435 3.52366 0.739476 3.64764 0.832419C3.77161 0.925362 3.86584 1.05221 3.91889 1.19754C4.1443 1.79172 4.41552 2.36761 4.73013 2.92003C5.07074 3.535 5.4541 4.12544 5.87742 4.68702C6.02102 4.89475 6.1985 5.07703 6.40249 5.22628C6.46747 5.28043 6.54725 5.31388 6.63151 5.32228C6.71577 5.33068 6.80062 5.31365 6.87506 5.2734C6.95646 5.22484 7.01999 5.1514 7.05621 5.06398C7.15157 4.84556 7.21011 4.61294 7.22949 4.37551C7.2868 3.82243 7.29822 3.26557 7.26362 2.71061C7.25723 2.37937 7.22298 2.04924 7.16123 1.72371C7.14548 1.64256 7.1166 1.56403 7.10085 1.48287C7.08191 1.40741 7.04674 1.33695 6.99778 1.27638C6.94882 1.21581 6.88724 1.16658 6.8173 1.13209C6.6371 1.0204 6.43281 0.953101 6.22134 0.935761C6.16096 0.935761 6.13996 0.904348 6.16621 0.851992C6.18869 0.799878 6.21877 0.751362 6.25547 0.708015C6.44748 0.499809 6.70673 0.365464 6.98795 0.328439C7.39539 0.258719 7.80858 0.228039 8.22188 0.236817C8.68132 0.236817 9.14339 0.236817 9.60546 0.265612C9.80596 0.278288 10.0047 0.310732 10.1988 0.36247C10.3533 0.393097 10.493 0.474944 10.595 0.594709C10.697 0.714473 10.7554 0.865114 10.7606 1.02215C10.783 1.27455 10.7909 1.52801 10.7843 1.7813C10.779 2.12423 10.758 2.46977 10.7449 2.78914Z" fill="#373334"/>
</svg>
