<svg width="17" height="16" viewBox="0 0 17 16" fill="none" xmlns="http://www.w3.org/2000/svg">
<g clip-path="url(#clip0_1801_90)">
<circle cx="8.0332" cy="8" r="8" fill="#373334"/>
<path d="M9.80254 12.6591L9.34285 12.7905C8.43825 13.1982 7.43085 13.3209 6.45437 13.1422C6.27358 13.1185 6.10572 13.0354 5.97717 12.9059C5.88689 12.7982 5.82384 12.6703 5.79334 12.533C5.76285 12.3958 5.7658 12.2533 5.80196 12.1175C5.84341 11.9265 5.95316 11.7574 6.11057 11.6418C6.26798 11.5262 6.46222 11.4722 6.65677 11.4899C6.91178 11.4889 7.15524 11.5311 7.41025 11.5301C7.96375 11.502 8.50697 11.3703 9.01168 11.1416C9.77504 10.8232 10.4387 10.3053 10.9333 9.64213C11.0955 9.40705 11.237 9.15821 11.3559 8.89845C11.4599 8.66193 11.6343 8.46335 11.8553 8.32982C11.992 8.25388 12.148 8.21965 12.304 8.23135C12.46 8.24306 12.6092 8.30019 12.7332 8.3957C12.8211 8.44716 12.898 8.51557 12.9594 8.59696C13.0207 8.67835 13.0654 8.7711 13.0907 8.86984C13.116 8.96858 13.1215 9.07134 13.1068 9.17217C13.0921 9.273 13.0576 9.3699 13.0052 9.45724C12.8396 9.93966 12.5937 10.3906 12.2781 10.791C11.9637 11.1723 11.6074 11.517 11.216 11.8186L10.9422 11.9767L11.0824 12.0298L14.4243 12.9274C14.5915 12.962 14.7431 13.0498 14.8564 13.1776C14.9697 13.3055 15.0386 13.4666 15.0529 13.6368C15.0745 13.8078 15.0464 13.9813 14.9721 14.1366C14.8977 14.2919 14.7802 14.4225 14.6335 14.5126C14.5474 14.5615 14.4522 14.5922 14.3538 14.603C14.2553 14.6137 14.1557 14.6042 14.061 14.5751L11.6568 13.9526L11.3908 13.8502C11.3135 13.8218 11.277 13.8428 11.2539 13.9293L10.8957 15.2695C10.7724 15.7306 10.6583 16.1865 10.4841 16.6648C10.4299 16.8539 10.3045 17.0146 10.1342 17.1129C9.96391 17.2112 9.76208 17.2395 9.57121 17.1919C9.37413 17.1538 9.19516 17.0515 9.06235 16.9008C8.98253 16.8097 8.92629 16.7004 8.89857 16.5826C8.87085 16.4647 8.8725 16.3418 8.90339 16.2248L9.38491 14.4235L9.78228 12.7927L9.80254 12.6591Z" fill="#F2F2F2"/>
<path d="M5.56054 4.00582C6.15144 3.66224 6.83126 3.50232 7.51358 3.54638C8.19591 3.59044 8.84994 3.83649 9.39255 4.25326C9.93516 4.67003 10.3419 5.23869 10.5609 5.88698C10.78 6.53527 10.8016 7.23392 10.6229 7.89412C10.4443 8.55433 10.0734 9.14628 9.55754 9.59475C9.04165 10.0432 8.40401 10.328 7.72567 10.4128C7.04732 10.4976 6.35889 10.3786 5.74788 10.0711C5.13686 9.76349 4.63085 9.28117 4.29415 8.6854C3.8446 7.89556 3.72546 6.96012 3.96273 6.08335C4.2 5.20658 4.77442 4.4597 5.56054 4.00582V4.00582ZM5.79652 7.83012C5.96178 8.12458 6.21043 8.36358 6.51111 8.51695C6.81179 8.67032 7.15105 8.7312 7.48608 8.69192C7.82111 8.65264 8.13692 8.51494 8.39367 8.29621C8.65042 8.07748 8.83662 7.7875 8.92878 7.46284C9.02094 7.13819 9.01493 6.79341 8.91152 6.47197C8.8081 6.15054 8.61191 5.86686 8.34769 5.6567C8.08347 5.44654 7.76305 5.31933 7.42684 5.29109C7.09063 5.26286 6.75369 5.33488 6.45852 5.49806C6.26146 5.60701 6.08791 5.7539 5.94787 5.93028C5.80783 6.10666 5.70405 6.30905 5.64252 6.5258C5.581 6.74254 5.56293 6.96937 5.58935 7.19322C5.61578 7.41707 5.68619 7.63352 5.79652 7.83012V7.83012Z" fill="#F2F2F2"/>
</g>
<defs>
<clipPath id="clip0_1801_90">
<rect width="15.9894" height="16" fill="white" transform="translate(0.0332031)"/>
</clipPath>
</defs>
</svg>
