<svg width="215" height="48" viewBox="0 0 215 48" fill="none" xmlns="http://www.w3.org/2000/svg">
<path d="M214.033 9.48877C213.96 9.56234 213.851 9.67268 213.851 9.74624C213.668 12.0635 212.648 13.9025 211.008 15.4841C210.352 16.1094 210.316 16.1094 210.753 16.9186C211.591 18.4634 211.919 20.1554 211.737 21.8841C211.446 24.3485 210.28 26.3714 208.275 27.8795C206.927 28.8726 205.433 29.5346 203.794 29.5346C188.49 29.5346 173.186 29.4979 157.882 29.4611C152.27 29.4611 146.695 29.4611 141.084 29.4611C140.902 29.4611 140.756 29.4611 140.501 29.4611C140.683 28.7255 140.829 28.0266 141.011 27.3645C142.213 22.4726 143.452 17.5807 144.655 12.652C144.728 12.3209 144.873 12.2106 145.165 12.2474C146.622 12.2474 148.08 12.2474 149.537 12.2474C149.865 12.2474 149.975 12.2842 149.865 12.6888C149.137 15.5945 148.408 18.4634 147.715 21.3692C147.497 22.2151 147.315 23.0611 147.096 23.9071C147.023 24.2381 147.096 24.3485 147.424 24.3117C147.57 24.3117 147.752 24.3117 147.898 24.3117C166.408 24.3117 184.919 24.3117 203.466 24.3485C204.267 24.3485 204.96 24.2381 205.579 23.6864C206.162 23.1715 206.563 22.5462 206.709 21.737C207.073 19.6037 205.871 17.7646 203.684 17.4336C202.263 17.2129 200.879 17.2864 199.494 17.2864C185.903 17.2497 172.311 17.2864 158.72 17.2864C158.538 17.2864 158.319 17.2864 158.064 17.2864C158.246 16.6244 158.392 16.0359 158.538 15.4474C158.793 14.491 159.011 13.5347 159.266 12.5784C159.339 12.2474 159.485 12.137 159.813 12.137C160.469 12.2106 161.161 12.2106 161.817 12.2474C167.173 12.2842 172.493 12.3209 177.85 12.3577C181.311 12.3945 184.737 12.4313 188.198 12.4313C191.186 12.4681 194.174 12.5049 197.162 12.5049C199.931 12.5416 202.7 12.5784 205.47 12.5784C206.381 12.5784 207.219 12.2842 207.911 11.6221C208.749 10.8129 209.041 9.81981 208.968 8.6428C208.895 7.31867 207.838 5.92098 206.526 5.62672C206.162 5.55316 205.761 5.4796 205.36 5.4796C199.676 5.4796 194.028 5.4796 188.344 5.4796C177.376 5.44282 166.408 5.40604 155.44 5.40604C144.728 5.36925 134.015 5.33247 123.338 5.33247C122.683 5.33247 122.683 5.33247 122.537 5.95776C121.444 10.4083 120.35 14.8221 119.257 19.2726C118.456 22.5094 117.654 25.7462 116.852 28.9829C116.816 29.13 116.634 29.314 116.488 29.314C114.921 29.3507 113.354 29.314 111.751 29.314C111.715 29.314 111.642 29.2772 111.532 29.2772C111.824 28.137 112.079 27.0335 112.371 25.9301C113.937 19.6404 115.468 13.3876 117.035 7.09798C117.581 4.8911 118.128 2.68421 118.638 0.477326C118.711 0.109511 118.893 0.0359497 119.257 0.0359497C138.278 0.0359497 157.299 0.0359497 176.283 0.0359497C186.376 0.0359497 196.506 0.0359497 206.599 0.0359497C207.62 0.0359497 208.531 0.440545 209.369 0.881922C210.863 1.69111 211.956 2.86812 212.757 4.33937C213.413 5.58994 213.96 6.84051 213.996 8.27499C213.996 8.34855 214.069 8.42211 214.106 8.49568C214.033 8.86349 214.033 9.15774 214.033 9.48877Z" fill="#373334"/>
<path d="M165.062 48C165.28 46.8965 165.535 45.7931 165.754 44.6529C165.79 44.3954 165.936 44.285 166.191 44.3218C166.555 44.3954 166.738 44.2115 166.883 43.8805C167.94 41.8575 168.487 39.7242 168.924 37.5173C168.96 37.2598 169.033 37.1127 169.325 37.1127C171.074 37.1127 172.859 37.1127 174.608 37.1127C174.681 37.1127 174.718 37.1495 174.827 37.1495C174.645 37.9954 174.463 38.8782 174.28 39.7242C173.989 41.1586 173.661 42.5563 173.369 43.9908C173.333 44.2483 173.369 44.3586 173.661 44.3586C173.952 44.3586 173.989 44.469 173.916 44.7264C173.697 45.646 173.515 46.5655 173.333 47.485C173.297 47.6689 173.333 47.8161 173.333 48C172.932 48 172.531 48 172.094 48C172.24 47.1908 172.422 46.3816 172.568 45.5356C170.6 45.5356 168.669 45.5356 166.701 45.5356C166.555 46.3816 166.446 47.1908 166.3 48C165.9 48 165.462 48 165.062 48ZM173.078 38.2897C172.24 38.2897 171.438 38.3265 170.673 38.2897C170.309 38.2897 170.199 38.4368 170.09 38.7678C169.616 40.3494 169.07 41.8943 168.56 43.4391C168.45 43.7333 168.341 44.0276 168.232 44.3586C169.471 44.3586 170.6 44.3586 171.803 44.3586C172.24 42.3356 172.641 40.3494 173.078 38.2897Z" fill="#373334"/>
<path d="M98.232 29.3883C100.2 21.4068 102.167 13.4252 104.135 5.40687C103.807 5.40687 103.588 5.40687 103.37 5.40687C70.867 5.40687 38.3278 5.40687 5.82508 5.44365C3.89386 5.44365 2.98291 4.08274 2.98291 2.5747C3.01935 1.39769 3.71167 0.331033 4.80481 0.0735631C5.02344 0.0367817 5.24207 0 5.42426 0C35.7407 0 66.0572 0 96.3736 0C101.038 0 105.665 0 110.329 0C110.512 0 110.694 0 110.912 0C110.657 1.10344 110.366 2.20689 110.111 3.27355C109.965 3.93561 109.856 4.63446 109.674 5.29652C109.346 6.65744 108.945 8.01835 108.58 9.37926C107.742 12.6896 106.904 15.9999 106.103 19.3102C105.301 22.547 104.536 25.8206 103.734 29.0573C103.698 29.1677 103.552 29.3516 103.443 29.3516C101.73 29.3884 99.981 29.3883 98.232 29.3883Z" fill="#9F0023"/>
<path d="M36.653 29.5722C26.3775 29.5722 16.1019 29.5722 5.78998 29.5722C4.55109 29.5722 3.56726 28.8733 3.20288 27.6963C2.87494 26.7032 3.3122 25.5998 4.29602 24.9009C4.80616 24.5331 5.38916 24.4595 5.97217 24.4595C11.0735 24.4595 16.2113 24.4595 21.3126 24.4595C36.653 24.4595 51.957 24.4595 67.2974 24.4595C68.7549 24.4595 70.1396 23.1354 70.3582 21.7009C70.5404 20.3768 70.2489 19.2734 69.2651 18.3538C68.6821 17.8389 68.0262 17.5079 67.2245 17.5079C56.2202 17.5079 45.216 17.5079 34.2117 17.5079C33.1185 17.5079 32.3169 17.0665 31.8432 16.0366C31.3331 14.9699 31.5517 13.9768 32.3169 13.1676C32.7906 12.6527 33.3736 12.3585 34.1388 12.3585C45.0338 12.3585 55.8923 12.3585 66.7873 12.3585C70.9776 12.3585 74.5121 15.3378 75.2773 19.4205C75.7875 22.1055 75.0587 24.4963 73.3097 26.5561C71.8886 28.248 70.0667 29.1676 67.9169 29.5354C67.7347 29.5722 67.5525 29.5354 67.4067 29.5354C57.1312 29.5722 46.8921 29.5722 36.653 29.5722Z" fill="#373334"/>
<path d="M151.652 45.4983C150.996 45.4983 150.303 45.4983 149.647 45.4983C149.356 45.4983 149.247 45.4248 149.319 45.0937C149.866 42.519 150.413 39.9443 150.959 37.3696C150.996 37.2593 151.214 37.0754 151.324 37.0754C152.599 37.0754 153.911 37.0754 155.186 37.1489C156.097 37.1857 156.716 37.7742 156.935 38.657C157.117 39.3926 156.753 40.2754 156.061 40.6432C155.951 40.7167 155.805 40.7535 155.66 40.8639C155.441 41.011 155.405 41.1213 155.66 41.3052C155.988 41.5627 156.316 41.8202 156.498 42.1512C156.935 42.8868 156.607 43.5857 156.206 44.2478C155.769 44.9834 155.004 45.2776 154.202 45.388C153.328 45.4983 152.453 45.4983 151.615 45.5351C151.652 45.5351 151.652 45.5351 151.652 45.4983ZM152.562 44.3213C152.927 44.3213 153.291 44.3213 153.656 44.3213C154.311 44.2845 154.822 44.0638 155.113 43.4386C155.405 42.7397 155.113 42.0041 154.348 41.8937C153.473 41.7834 152.562 41.8202 151.652 41.8202C151.579 41.8202 151.469 41.9673 151.469 42.0409C151.324 42.6662 151.178 43.3282 151.032 43.9535C150.996 44.1742 151.068 44.3213 151.324 44.3213C151.761 44.3213 152.162 44.3213 152.562 44.3213ZM151.797 40.68C152.818 40.6432 153.692 40.6064 154.567 40.5328C155.186 40.4593 155.55 39.834 155.477 39.1351C155.405 38.5834 155.04 38.2892 154.348 38.2892C153.874 38.2892 153.401 38.2892 152.963 38.2892C152.307 38.2892 152.271 38.2892 152.162 38.9512C152.016 39.4662 151.943 40.0179 151.797 40.68Z" fill="#373334"/>
<path d="M75.0573 45.4988C74.365 45.4988 73.6726 45.4988 73.0168 45.4988C72.7253 45.4988 72.6524 45.3885 72.7253 45.131C73.2718 42.5563 73.8184 39.9816 74.365 37.4069C74.4014 37.2598 74.62 37.1127 74.7294 37.1127C76.0047 37.1127 77.3165 37.1127 78.5918 37.1862C79.5756 37.2598 80.2315 37.9219 80.3772 38.8414C80.4866 39.4299 80.0857 40.4598 79.2477 40.7908C79.1019 40.8276 79.029 40.9747 78.9197 41.0851C79.029 41.1954 79.1019 41.3058 79.2112 41.3793C80.1222 41.9678 80.3044 42.777 79.9036 43.7701C79.4663 44.8 78.6282 45.2781 77.608 45.3885C76.7699 45.4988 75.8954 45.4988 75.0573 45.5356C75.0573 45.5356 75.0573 45.5356 75.0573 45.4988ZM74.4378 44.3218C75.4581 44.3218 76.3691 44.3586 77.2436 44.3218C77.8266 44.3218 78.3003 43.9908 78.5189 43.4391C78.8104 42.7402 78.5189 42.0046 77.7901 41.8943C77.1343 41.7839 76.4784 41.8207 75.7861 41.8207C74.948 41.8207 74.9115 41.8207 74.7294 42.6667C74.6565 43.1816 74.5472 43.7333 74.4378 44.3218ZM76.9885 38.2897C76.6606 38.2897 76.3326 38.2529 76.0411 38.2897C75.8954 38.3265 75.7132 38.4736 75.6767 38.5839C75.531 39.0989 75.4217 39.6506 75.3124 40.2023C75.2395 40.4598 75.3124 40.6069 75.6403 40.6069C76.2233 40.6069 76.8428 40.6437 77.4258 40.6069C77.7537 40.5701 78.0817 40.4966 78.3732 40.3494C78.8104 40.1287 79.029 39.5035 78.9197 38.9885C78.8104 38.5471 78.446 38.2897 77.8995 38.2897C77.5715 38.2897 77.28 38.2897 76.9885 38.2897Z" fill="#373334"/>
<path d="M195.085 37.1127C194.721 38.8782 194.357 40.6069 193.992 42.3356C194.029 42.3724 194.065 42.4092 194.138 42.4092C194.357 42.2253 194.575 42.0782 194.757 41.8575C195.705 40.7173 196.652 39.577 197.636 38.4736C197.855 38.2161 198.037 37.9954 198.255 37.738C198.547 37.3334 198.875 37.0391 199.421 37.1495C199.64 37.1862 199.895 37.1495 200.187 37.1495C200.041 37.8483 199.895 38.4736 199.786 39.1356C199.349 41.1954 198.911 43.2184 198.474 45.2781C198.438 45.3885 198.255 45.5724 198.146 45.5724C196.762 45.5724 196.944 45.7931 197.235 44.5057C197.49 43.2184 197.782 41.931 198.073 40.6437C198.11 40.5333 198.037 40.3862 198 40.2759C197.891 40.3494 197.782 40.3494 197.709 40.4598C196.434 41.9678 195.158 43.5126 193.883 45.0207C193.446 45.5356 192.753 45.7931 192.17 45.6092C192.097 45.5724 191.988 45.3885 192.025 45.2781C192.28 44.0276 192.571 42.777 192.826 41.5264C193.118 40.2023 193.373 38.915 193.664 37.5908C193.737 37.2966 193.846 37.1862 194.138 37.223C194.357 37.1127 194.685 37.1127 195.085 37.1127Z" fill="#373334"/>
<path d="M161.087 37.1126C160.723 38.8781 160.358 40.6068 159.994 42.2988C160.03 42.3355 160.067 42.3723 160.14 42.3723C160.358 42.1884 160.577 42.0413 160.759 41.8206C161.706 40.6804 162.654 39.5402 163.638 38.4367C163.856 38.1792 164.075 37.9218 164.257 37.6643C164.549 37.2965 164.877 37.0022 165.387 37.0758C165.642 37.1126 165.86 37.0758 166.188 37.0758C166.006 37.9218 165.86 38.731 165.678 39.5034C165.277 41.3792 164.877 43.2919 164.476 45.1677C164.439 45.4252 164.33 45.462 164.111 45.462C162.8 45.4252 162.945 45.6459 163.237 44.3585C163.492 43.0712 163.783 41.7838 164.075 40.4965C164.111 40.3861 164.038 40.239 164.038 40.1287C163.929 40.1654 163.82 40.2022 163.747 40.3126C162.472 41.8206 161.16 43.3654 159.921 44.8735C159.484 45.3884 158.828 45.6459 158.208 45.462C158.136 45.4252 158.026 45.2413 158.063 45.1309C158.463 43.2183 158.864 41.3057 159.302 39.393C159.447 38.7677 159.593 38.1057 159.702 37.4804C159.739 37.1861 159.885 37.0758 160.176 37.0758C160.358 37.1126 160.686 37.1126 161.087 37.1126Z" fill="#373334"/>
<path d="M105.41 40.5336C105.337 42.5198 104.207 44.6899 102.203 45.4255C100.563 46.014 98.8143 45.6462 97.8669 44.1382C97.3568 43.2922 97.2111 42.3359 97.4297 41.3428C97.6483 40.3497 97.9398 39.4301 98.5593 38.6209C99.1787 37.8118 99.9803 37.2968 100.964 37.0393C101.912 36.7819 102.859 36.8554 103.77 37.3704C104.827 37.9957 105.446 39.283 105.41 40.5336ZM98.8508 42.152C98.8508 43.0347 99.1058 43.8071 99.9439 44.2117C100.818 44.6163 101.656 44.506 102.385 43.9175C103.187 43.329 103.551 42.4462 103.77 41.4899C103.952 40.7543 103.952 39.9819 103.624 39.2462C103.041 37.9221 101.037 37.8118 100.017 38.9152C99.2151 39.8347 98.8508 40.9382 98.8508 42.152Z" fill="#373334"/>
<path d="M39.785 40.6063C39.6028 42.4454 38.9469 44.1005 37.2343 45.1304C35.5217 46.1235 33.3354 45.9396 32.2423 44.1741C31.6957 43.2913 31.5864 42.2983 31.805 41.3052C32.0237 40.3488 32.3152 39.4293 32.9346 38.6201C33.5541 37.8109 34.3921 37.296 35.3395 37.0753C36.2869 36.8178 37.2343 36.8914 38.1088 37.4063C39.3113 38.0684 39.7121 39.2086 39.785 40.6063ZM38.2546 40.5695C38.2546 40.496 38.2546 40.4592 38.2546 40.3856C38.2546 39.3925 37.8173 38.6569 37.0885 38.3626C36.0318 37.958 34.9751 38.3259 34.3921 38.9511C33.5541 39.8707 33.1897 41.0109 33.1897 42.2983C33.2261 43.1074 33.4447 43.8063 34.2099 44.1741C35.0116 44.5787 35.7768 44.5419 36.5055 44.0638C37.7809 43.2178 38.1453 41.9672 38.2546 40.5695Z" fill="#373334"/>
<path d="M71.8504 40.6063C71.6682 42.4454 71.0123 44.1005 69.2997 45.1304C67.5871 46.1235 65.4009 45.9396 64.3077 44.1741C63.7611 43.2913 63.6518 42.2983 63.8705 41.3052C64.0891 40.3488 64.3806 39.4293 65 38.6201C65.6195 37.8109 66.4576 37.296 67.405 37.0753C68.3523 36.8178 69.2997 36.8914 70.1742 37.4063C71.3767 38.0684 71.814 39.2086 71.8504 40.6063ZM65.2915 42.1143C65.2915 43.0339 65.5466 43.6592 66.0567 44.027C66.9677 44.6523 68.1702 44.5787 68.9718 43.8063C69.9556 42.85 70.3564 41.673 70.32 40.3488C70.32 39.3925 69.8463 38.6569 69.1175 38.3994C68.0244 37.958 67.0041 38.3994 66.4576 38.9879C65.6559 39.8339 65.2915 40.9373 65.2915 42.1143Z" fill="#373334"/>
<path d="M7.83118 44.432C8.88788 44.3585 9.07007 44.2114 9.2887 43.1815C9.68952 41.3056 10.0903 39.393 10.5276 37.5171C10.564 37.37 10.7462 37.1125 10.8555 37.1125C12.6046 37.0758 14.39 37.1125 16.2119 37.1125C16.0297 37.9585 15.884 38.7309 15.7018 39.5401C15.301 41.416 14.9002 43.3286 14.4993 45.2044C14.4265 45.4619 14.3536 45.5355 14.0985 45.5355C13.807 45.5355 13.552 45.5355 13.2604 45.5355C12.9689 45.5355 12.9325 45.4251 12.9689 45.1677C13.4062 43.1079 13.8435 41.0482 14.2807 38.9884C14.4265 38.3999 14.3536 38.3263 13.7706 38.3263C13.2604 38.3263 12.7868 38.3263 12.2766 38.3263C11.9487 38.3263 11.8029 38.3999 11.73 38.7677C11.3657 40.5332 10.9648 42.3355 10.5276 44.0642C10.1997 45.2412 9.47089 45.7562 8.41419 45.7194C8.19556 45.7194 7.97693 45.6826 7.79474 45.609C7.72186 45.5723 7.61255 45.3884 7.61255 45.3148C7.68542 44.9838 7.79474 44.7263 7.83118 44.432Z" fill="#373334"/>
<path d="M140.902 37.1127C140.683 38.1058 140.501 39.0621 140.319 40.0184C139.955 41.7471 139.554 43.4759 139.189 45.2046C139.153 45.4621 139.044 45.4988 138.825 45.4988C138.534 45.4988 138.278 45.4988 137.987 45.4988C137.695 45.4988 137.623 45.3885 137.695 45.131C138.133 43.0713 138.57 41.0115 139.007 38.9517C139.153 38.3265 139.117 38.2897 138.461 38.2897C137.951 38.2897 137.477 38.2897 136.967 38.2897C136.639 38.2897 136.529 38.4 136.457 38.7311C136.056 40.5333 135.728 42.3356 135.218 44.0644C134.853 45.4621 133.906 45.9034 132.485 45.6092C132.412 45.5724 132.339 45.5356 132.23 45.4988C132.303 45.1678 132.412 44.8 132.485 44.469C133.578 44.3586 133.797 44.1747 134.015 42.9977C134.416 41.1586 134.78 39.2828 135.181 37.4437C135.218 37.2966 135.4 37.1127 135.546 37.1127C137.295 37.1127 139.044 37.1127 140.902 37.1127Z" fill="#373334"/>
<path d="M186.522 37.1122C186.303 38.2524 186.084 39.2823 185.829 40.4225C185.975 40.4593 186.121 40.4593 186.23 40.4593C187.141 40.4593 188.052 40.4593 188.999 40.4593C189.291 40.4593 189.437 40.3489 189.473 40.0915C189.655 39.2087 189.837 38.3627 190.02 37.48C190.056 37.2225 190.165 37.0754 190.457 37.1122C190.821 37.1122 191.186 37.1122 191.623 37.1122C191.441 37.9581 191.295 38.7305 191.113 39.5397C190.712 41.4156 190.311 43.3282 189.91 45.2041C189.874 45.4615 189.765 45.5351 189.51 45.5351C189.218 45.5351 188.963 45.5351 188.671 45.5351C188.38 45.5351 188.307 45.4248 188.38 45.1673C188.599 44.1742 188.817 43.2179 188.999 42.2248C189.109 41.7466 189.036 41.6731 188.599 41.6731C187.724 41.6731 186.886 41.6731 186.011 41.6731C185.684 41.6731 185.538 41.7466 185.465 42.0777C185.246 43.1443 184.991 44.1742 184.809 45.2409C184.773 45.4983 184.663 45.5719 184.445 45.5351C184.299 45.5351 184.19 45.5351 184.044 45.5351C183.024 45.5351 183.206 45.5351 183.388 44.7259C183.862 42.3351 184.408 39.9443 184.918 37.5535C184.991 37.2225 185.101 37.1122 185.428 37.1122C185.756 37.1122 186.121 37.1122 186.522 37.1122Z" fill="#373334"/>
<path d="M176.973 44.3585C178.649 44.3585 180.179 44.3585 181.783 44.3585C181.71 44.7263 181.637 45.0573 181.528 45.3516C181.491 45.4619 181.309 45.5355 181.2 45.5355C179.341 45.5355 177.483 45.5355 175.625 45.5355C175.333 45.5355 175.26 45.4251 175.333 45.1309C175.88 42.5562 176.426 40.0183 176.973 37.4436C177.009 37.2964 177.228 37.1125 177.337 37.1125C179.086 37.0758 180.872 37.1125 182.621 37.1125C182.876 37.1125 182.949 37.1493 182.876 37.4436C182.621 38.4735 182.767 38.2895 181.856 38.2895C180.799 38.2895 179.742 38.2895 178.722 38.2895C178.394 38.2895 178.248 38.3999 178.212 38.7309C178.139 39.3194 177.993 39.9079 177.847 40.5332C178.066 40.5332 178.248 40.57 178.43 40.57C179.524 40.57 180.58 40.57 181.673 40.57C182.22 40.57 182.22 40.57 182.074 41.1217V41.1585C182.038 41.6367 181.783 41.7838 181.273 41.7838C180.179 41.747 179.086 41.7838 177.993 41.7838C177.702 41.7838 177.556 41.8573 177.483 42.1884C177.301 42.8504 177.119 43.5493 176.973 44.3585Z" fill="#373334"/>
<path d="M127.421 40.5333C127.676 40.5333 127.822 40.5701 128.004 40.5701C129.134 40.5701 130.263 40.5701 131.356 40.5701C131.648 40.5701 131.757 40.6068 131.648 40.9379C131.393 41.8206 131.611 41.7471 130.628 41.7471C129.607 41.7471 128.624 41.7838 127.603 41.7471C127.202 41.7471 127.057 41.8942 126.984 42.2252C126.875 42.9241 126.729 43.5861 126.583 44.3218C126.838 44.3218 126.984 44.3585 127.166 44.3585C128.405 44.3585 129.644 44.3585 130.883 44.3585C131.247 44.3585 131.393 44.3953 131.247 44.8367C130.992 45.6091 131.211 45.5723 130.336 45.5723C128.624 45.5723 126.911 45.5723 125.235 45.5723C124.907 45.5723 124.798 45.4988 124.87 45.1309C125.417 42.593 125.964 40.0551 126.51 37.4804C126.547 37.3701 126.729 37.1862 126.838 37.1862C128.66 37.1862 130.482 37.1862 132.304 37.1862C132.34 37.1862 132.377 37.2229 132.486 37.2597C132.413 37.554 132.377 37.885 132.267 38.1793C132.231 38.2896 131.976 38.3632 131.83 38.3632C130.664 38.3632 129.535 38.3999 128.369 38.3632C127.968 38.3632 127.785 38.4367 127.713 38.9149C127.713 39.3563 127.567 39.908 127.421 40.5333Z" fill="#373334"/>
<path d="M113.901 37.186C113.828 37.5171 113.792 37.8481 113.646 38.1056C113.61 38.2159 113.355 38.2895 113.209 38.2895C112.043 38.2895 110.913 38.3263 109.747 38.2895C109.346 38.2895 109.164 38.363 109.128 38.8044C109.091 39.2458 108.982 39.6872 108.836 40.1285C108.727 40.4964 108.873 40.5699 109.201 40.5699C110.33 40.5699 111.46 40.5699 112.553 40.5699C112.699 40.5699 112.881 40.5699 113.099 40.5699C113.027 40.9377 112.954 41.2688 112.844 41.563C112.808 41.6734 112.553 41.7469 112.407 41.7469C111.241 41.7469 110.112 41.7469 108.946 41.7469C108.618 41.7469 108.435 41.8205 108.363 42.1883C108.253 42.7768 108.107 43.3653 107.998 43.9906C107.925 44.3216 108.107 44.3952 108.399 44.3952C109.674 44.3952 110.95 44.3952 112.188 44.3952C112.334 44.3952 112.516 44.3952 112.735 44.3952C112.662 44.763 112.589 45.094 112.48 45.3883C112.444 45.4986 112.261 45.5722 112.152 45.5722C110.257 45.5722 108.399 45.5722 106.504 45.5722C106.213 45.5722 106.176 45.4251 106.249 45.1676C106.686 43.1078 107.16 41.0113 107.597 38.9515C107.707 38.4734 107.779 37.9584 107.889 37.5171C107.925 37.3699 108.107 37.186 108.253 37.186C110.039 37.1492 111.824 37.186 113.61 37.186C113.719 37.1125 113.792 37.1492 113.901 37.186Z" fill="#373334"/>
<path d="M143.051 44.3218C144.035 44.3218 144.909 44.3218 145.784 44.3218C146.331 44.3218 146.877 44.3218 147.46 44.3218C147.715 44.3218 147.861 44.3586 147.752 44.6896C147.497 45.6092 147.715 45.4988 146.731 45.4988C145.055 45.4988 143.415 45.4988 141.739 45.4988C141.339 45.4988 141.229 45.4253 141.339 44.9839C141.885 42.446 142.395 39.9081 142.942 37.4069C142.978 37.2966 143.16 37.1127 143.27 37.1127C145.092 37.1127 146.914 37.1127 148.735 37.1127C148.772 37.1127 148.808 37.1495 148.918 37.1862C148.845 37.5173 148.772 37.8115 148.663 38.1426C148.626 38.2529 148.407 38.2897 148.262 38.2897C147.096 38.2897 145.966 38.3265 144.8 38.2897C144.399 38.2897 144.217 38.3632 144.144 38.8414C144.071 39.3931 143.926 39.9448 143.78 40.5333C144.035 40.5333 144.181 40.5701 144.363 40.5701C145.492 40.5701 146.622 40.5701 147.715 40.5701C148.007 40.5701 148.116 40.6069 148.007 40.9379C147.752 41.8207 147.97 41.7471 146.986 41.7471C145.966 41.7471 144.982 41.7839 143.962 41.7471C143.561 41.7471 143.415 41.8943 143.343 42.2253C143.343 42.8874 143.197 43.5862 143.051 44.3218Z" fill="#373334"/>
<path d="M208.237 37.1864C208.165 37.4806 208.128 37.8117 208.019 38.0324C207.946 38.1427 207.727 38.253 207.581 38.253C206.415 38.2898 205.213 38.2898 204.047 38.253C203.719 38.253 203.537 38.3266 203.5 38.6944C203.428 39.1726 203.318 39.6507 203.209 40.0921C203.172 40.2025 203.172 40.3128 203.172 40.4967C203.537 40.4967 203.865 40.4967 204.156 40.4967C205.14 40.4967 206.124 40.4967 207.071 40.4967C207.363 40.4967 207.472 40.5335 207.363 40.8645C207.108 41.7473 207.326 41.6737 206.343 41.6737C205.322 41.6737 204.302 41.6737 203.282 41.6737C202.99 41.6737 202.808 41.7473 202.735 42.0783C202.626 42.7036 202.48 43.2921 202.334 43.9174C202.298 44.0277 202.334 44.1013 202.371 44.2484C202.553 44.2484 202.772 44.2852 202.954 44.2852C204.193 44.2852 205.432 44.2852 206.671 44.2852C206.998 44.2852 207.181 44.3588 206.998 44.6898C206.962 44.8001 206.926 44.9473 206.889 45.0576C206.853 45.3519 206.707 45.4622 206.415 45.4622C204.594 45.4622 202.735 45.4622 200.913 45.4622C200.585 45.4622 200.513 45.3886 200.585 45.0576C201.132 42.5197 201.679 39.9818 202.225 37.4071C202.262 37.2599 202.444 37.076 202.553 37.076C204.375 37.0393 206.197 37.076 208.019 37.076C208.092 37.1128 208.128 37.1496 208.237 37.1864Z" fill="#373334"/>
<path d="M22.0391 43.5863C20.9095 43.5863 19.8164 43.5863 18.7232 43.5863C18.6139 43.5863 18.4681 43.6966 18.3953 43.807C18.1038 44.2851 17.8851 44.7633 17.5936 45.2047C17.5208 45.3518 17.3021 45.4621 17.1199 45.4989C16.7556 45.5357 16.3912 45.4989 15.9175 45.4989C16.4276 44.5794 16.8649 43.6966 17.3386 42.8506C17.8851 41.8208 18.4681 40.7909 19.0512 39.761C19.4884 38.9518 19.9257 38.1426 20.3994 37.3702C20.4722 37.2599 20.6544 37.1495 20.8002 37.1495C21.2374 37.1127 21.6383 37.1495 22.0755 37.1495C22.2941 37.1495 22.4035 37.1863 22.4399 37.4438C22.8043 39.8346 23.2051 42.2254 23.5695 44.6162C23.6059 44.9104 23.6423 45.2047 23.7152 45.5357C23.3144 45.5357 22.9136 45.5725 22.5492 45.4989C22.4035 45.4621 22.2577 45.2414 22.2213 45.0943C22.1484 44.6162 22.1119 44.138 22.0391 43.5863ZM19.3062 42.4093C19.9985 42.4093 20.6544 42.4093 21.2739 42.4093C21.8204 42.4093 21.8933 42.2989 21.8204 41.7472C21.6747 40.8277 21.5289 39.9081 21.3832 38.9886C21.3832 38.915 21.3103 38.8415 21.2739 38.7311C21.201 38.8047 21.0917 38.8415 21.0552 38.915C20.5087 39.9081 19.9621 40.9012 19.452 41.8943C19.3427 42.0415 19.3427 42.1886 19.3062 42.4093Z" fill="#373334"/>
<path d="M95.5348 45.4984C95.0611 45.4984 94.6239 45.4984 94.223 45.4984C94.1137 45.4984 94.0044 45.3512 93.968 45.2409C93.7129 44.3949 93.4943 43.5489 93.2392 42.7398C93.1299 42.3352 93.0206 41.9673 92.5469 41.7834C92.1461 41.6363 91.9639 41.7099 91.8546 42.1513C91.6359 43.1811 91.3809 44.1742 91.1987 45.2041C91.1623 45.4984 91.0165 45.5351 90.7979 45.5351C90.6521 45.5351 90.5428 45.5351 90.3971 45.5351C89.5954 45.5351 89.5954 45.5351 89.7776 44.726C90.2877 42.3352 90.7979 39.9076 91.308 37.5168C91.3444 37.2593 91.4538 37.1122 91.7453 37.149C92.1096 37.149 92.474 37.149 92.9113 37.149C92.7655 37.7743 92.6562 38.3628 92.5469 38.9513C92.4376 39.3926 92.3647 39.834 92.2554 40.2754C92.1825 40.68 92.3283 40.8639 92.7291 40.7168C93.0206 40.6064 93.3121 40.4225 93.4943 40.2018C93.968 39.503 94.4052 38.7674 94.8789 38.0685C95.4255 37.2961 96.1907 37.0386 97.1745 37.149C97.0652 37.48 96.9923 37.7743 96.883 38.0317C96.8466 38.1053 96.6644 38.2156 96.5551 38.1789C96.0814 38.1421 95.8628 38.3996 95.6441 38.7674C95.3162 39.3191 94.9518 39.8708 94.551 40.3858C94.3688 40.6432 94.0409 40.8271 93.7494 40.9742C93.5307 41.0846 93.4943 41.1949 93.6765 41.3053C94.4417 41.6731 94.6967 42.3719 94.8789 43.1444C95.0976 43.9168 95.3162 44.6892 95.5348 45.4984Z" fill="#373334"/>
<path d="M55.9656 39.4298C55.4554 39.4666 55.0182 39.5401 54.5445 39.5769C54.508 39.5033 54.4352 39.4666 54.3987 39.393C54.2165 38.2528 53.0141 38.0689 52.1396 38.2895C51.2286 38.5102 50.682 39.1355 50.3177 39.9815C49.9168 40.9378 49.7347 41.8941 49.9533 42.924C50.099 43.6964 50.5363 44.2849 51.3379 44.4321C52.2124 44.5792 52.9776 44.3217 53.5242 43.5493C53.7064 43.3286 53.8157 43.0344 53.9979 42.7401C54.4352 42.8137 54.9089 42.8872 55.3826 42.9608C54.6174 45.2045 52.176 46.3447 50.1355 45.4251C49.1881 44.9838 48.6415 44.1746 48.4593 43.1447C48.1678 41.5631 48.4958 40.0918 49.3703 38.7677C50.3905 37.2229 52.6133 36.524 54.2894 37.2597C55.2368 37.6275 55.7834 38.3631 55.9656 39.4298Z" fill="#373334"/>
<path d="M88.976 39.4297C88.5387 39.4665 88.1015 39.54 87.6642 39.5768C87.5913 39.5768 87.482 39.4665 87.482 39.3929C87.3363 38.8044 87.0448 38.4366 86.4618 38.2895C85.8059 38.1423 85.2229 38.1791 84.6034 38.5102C83.5832 39.0619 83.2552 40.055 83.0366 41.0849C82.9273 41.6734 82.9273 42.3354 83.0366 42.9607C83.1459 43.7331 83.6196 44.2848 84.3848 44.432C85.2229 44.6159 85.9881 44.3216 86.5346 43.6228C86.7168 43.4021 86.8261 43.1078 87.0083 42.7768C87.4456 42.8504 87.9193 42.9239 88.393 42.9975C87.6642 45.2412 85.1136 46.4182 83.1459 45.4618C82.235 45.0205 81.6884 44.2113 81.5062 43.2182C81.2147 41.6366 81.5426 40.1653 82.4171 38.8412C83.4374 37.2964 85.6237 36.5975 87.3363 37.3332C88.2108 37.5538 88.9031 38.5102 88.976 39.4297Z" fill="#373334"/>
<path d="M1.78098 38.8406C2.1818 37.8107 2.947 37.2958 3.85795 37.0383C4.80534 36.7809 5.71629 36.9648 6.55437 37.4797C7.8297 38.2521 7.86614 39.9441 6.62724 40.79C6.44505 40.9004 6.2993 41.0107 6.11711 41.0843C5.78917 41.2314 5.82561 41.3785 6.08067 41.5257C7.53819 42.4084 7.17381 44.1739 5.97136 44.9831C4.55027 45.9027 3.01988 45.9762 1.52592 45.167C1.1251 44.9463 0.870031 44.4314 0.578527 44.0268C0.542089 43.99 0.651403 43.7693 0.724279 43.7325C1.05222 43.5854 1.4166 43.5119 1.74454 43.4383C1.81742 43.4383 1.99961 43.5486 2.07249 43.659C2.61906 44.5417 4.25877 44.7624 5.06041 44.0636C5.46122 43.6958 5.60698 43.144 5.46123 42.6659C5.27903 42.0774 4.80534 41.9303 4.25877 41.8567C4.11302 41.8199 3.93083 41.8567 3.7122 41.8567C3.78508 41.4521 3.85795 41.1211 3.93083 40.7533C3.96727 40.6797 4.14946 40.6061 4.25877 40.5694C4.55027 40.4958 4.91465 40.5326 5.20616 40.4222C5.82561 40.2015 6.08067 39.6866 6.0078 39.0245C5.97136 38.6199 5.60698 38.2521 5.09684 38.2153C4.40452 38.1418 3.67576 38.1786 3.27494 38.9142C3.2385 38.9878 3.09275 39.0613 2.98344 39.0613C2.6555 39.0245 2.25468 38.9142 1.78098 38.8406Z" fill="#373334"/>
<path d="M40.2214 45.5723C40.2214 45.4619 40.2579 45.3516 40.2579 45.278C40.2943 44.5424 40.2943 44.5056 41.0231 44.5424C41.7883 44.5792 42.7357 43.5493 42.4442 42.6665C41.934 41.0482 41.4968 39.3562 41.0231 37.701C40.9866 37.5171 40.9502 37.3332 40.8773 37.1125C41.351 37.1125 41.7518 37.0758 42.1527 37.1125C42.262 37.1125 42.4442 37.2964 42.4442 37.4068C42.7357 38.6574 42.9907 39.8711 43.2458 41.1217C43.2822 41.3056 43.3915 41.4527 43.5009 41.5999C43.6466 41.4895 43.8288 41.416 43.9381 41.2688C44.8491 39.9815 45.76 38.6941 46.671 37.4436C46.7803 37.2964 47.0353 37.1861 47.2175 37.1493C47.5819 37.1125 47.9827 37.1493 48.3836 37.1493C48.3836 37.2229 48.3836 37.2964 48.3471 37.3332C46.4523 39.8344 44.594 42.3723 42.6992 44.8734C42.1162 45.6826 41.2417 45.8665 40.2214 45.5723Z" fill="#373334"/>
<path d="M58.0022 45.4988C58.5123 43.0713 59.0225 40.7172 59.4962 38.2897C58.6216 38.2897 57.8564 38.2897 56.9819 38.2897C57.0548 37.8851 57.1277 37.5541 57.2006 37.2598C57.237 37.1862 57.3828 37.1127 57.4556 37.1127C59.5326 37.1127 61.5731 37.1127 63.723 37.1127C63.6501 37.4805 63.6137 37.7747 63.5043 38.069C63.4679 38.1793 63.2493 38.2897 63.1035 38.2897C62.4112 38.3265 61.7189 38.2897 60.9901 38.2897C60.5893 40.2023 60.1885 42.0414 59.8241 43.9172C59.7148 44.3586 59.6783 44.8 59.5326 45.2414C59.4962 45.3517 59.314 45.4988 59.2047 45.4988C58.8767 45.5356 58.4759 45.4988 58.0022 45.4988Z" fill="#373334"/>
<path d="M120.895 38.2897C119.984 38.2897 119.219 38.2897 118.381 38.2897C118.453 37.9219 118.526 37.5908 118.599 37.2598C118.599 37.1862 118.745 37.1127 118.818 37.1127C120.895 37.1127 122.972 37.1127 125.122 37.1127C125.049 37.4805 125.012 37.7747 124.903 38.069C124.867 38.1793 124.648 38.2897 124.502 38.2897C123.81 38.3265 123.118 38.2897 122.389 38.2897C121.915 40.6069 121.405 42.8506 120.968 45.131C120.895 45.4253 120.822 45.5356 120.53 45.5356C120.166 45.5356 119.802 45.5356 119.364 45.5356C119.911 43.108 120.385 40.754 120.895 38.2897Z" fill="#373334"/>
<path d="M31.6587 37.1857C31.5858 37.4432 31.5494 37.7742 31.4765 38.0685C31.4401 38.1788 31.2579 38.2524 31.1121 38.2524C30.5656 38.2892 30.019 38.2524 29.436 38.2524C29.2902 38.2524 29.108 38.2524 28.9623 38.2892C28.4886 40.5696 27.9785 42.8501 27.5412 45.0937C27.4683 45.388 27.3955 45.4983 27.1039 45.4983C26.7396 45.4983 26.3752 45.4983 25.9744 45.4983C26.1566 44.6156 26.3387 43.7696 26.5209 42.9236C26.8124 41.4891 27.1404 40.0914 27.4319 38.657C27.5048 38.3995 27.3955 38.2524 27.1039 38.2524C26.4116 38.2524 25.7557 38.2524 24.9541 38.2524C25.027 37.8846 25.0634 37.5903 25.1727 37.2593C25.2092 37.1857 25.3549 37.0754 25.4642 37.0754C27.5048 37.0754 29.5817 37.0754 31.6223 37.0754C31.5858 37.1122 31.5858 37.1489 31.6587 37.1857Z" fill="#373334"/>
</svg>
