<svg width="16" height="12" viewBox="0 0 16 12" fill="none" xmlns="http://www.w3.org/2000/svg">
<path d="M14.9385 2.80001C14.9385 2.80001 14.7921 1.69689 14.3412 1.21251C13.7703 0.575012 13.1321 0.571887 12.8393 0.534387C10.743 0.371887 7.59572 0.371887 7.59572 0.371887H7.58986C7.58986 0.371887 4.44254 0.371887 2.34628 0.534387C2.05351 0.571887 1.41526 0.575012 0.844352 1.21251C0.39348 1.69689 0.250021 2.80001 0.250021 2.80001C0.250021 2.80001 0.0977783 4.09689 0.0977783 5.39064V6.60314C0.0977783 7.89689 0.247093 9.19376 0.247093 9.19376C0.247093 9.19376 0.39348 10.2969 0.841424 10.7813C1.41233 11.4188 2.16183 11.3969 2.4956 11.4656C3.69597 11.5875 7.59279 11.625 7.59279 11.625C7.59279 11.625 10.743 11.6188 12.8393 11.4594C13.1321 11.4219 13.7703 11.4188 14.3412 10.7813C14.7921 10.2969 14.9385 9.19376 14.9385 9.19376C14.9385 9.19376 15.0878 7.90001 15.0878 6.60314V5.39064C15.0878 4.09689 14.9385 2.80001 14.9385 2.80001ZM6.04402 8.07501V3.57814L10.0931 5.83439L6.04402 8.07501Z" fill="#373334"/>
</svg>
