<?xml version="1.0" encoding="utf-8"?><svg viewBox="0 0 215 136" xmlns="http://www.w3.org/2000/svg" xmlns:xlink="http://www.w3.org/1999/xlink"><style>:root>svg{display:none}:root>svg:target{display:block}</style><svg viewBox="0 0 28 28" id="arrow" xmlns="http://www.w3.org/2000/svg"><path d="M18.205 8.242l.946 12.958 2.544-2.544-.972-12.828-11.205-.45L7 7.894l11.205.347z"/><path d="M17.788 7.135L5.014 19.909l2.012 2.012L19.8 9.147l-2.012-2.012z"/></svg><svg viewBox="0 0 11 7" id="arrow-nav" xmlns="http://www.w3.org/2000/svg"><path d="M1.5 1l4 4 4-4"/></svg><svg viewBox="0 0 28 28" id="arrow-white" xmlns="http://www.w3.org/2000/svg"><path d="M18.205 8.242l.946 12.958 2.544-2.544-.972-12.828-11.205-.45L7 7.894l11.205.347z"/><path d="M17.788 7.135L5.014 19.909l2.012 2.012L19.8 9.147l-2.012-2.012z"/></svg><svg viewBox="0 0 11 18" id="back" xmlns="http://www.w3.org/2000/svg"><path d="M10 1L2 9l8 8"/></svg><svg viewBox="0 0 11 18" id="back-preview" xmlns="http://www.w3.org/2000/svg"><path d="M10 1L2 9l8 8"/></svg><svg viewBox="0 0 20 20" id="calendar" xmlns="http://www.w3.org/2000/svg"><g clip-path="url(#fa)"><path d="M0 19.633h20V6.229H0v13.404zm14.828-11.45h2.07v2.07h-2.07v-2.07zm0 3.518h2.07v2.07h-2.07V11.7zm0 3.518h2.07v2.069h-2.07v-2.07zM10.92 8.184h2.069v2.069h-2.07v-2.07zm0 3.517h2.069v2.07h-2.07V11.7zm0 3.518h2.069v2.069h-2.07v-2.07zM7.01 8.184h2.07v2.069H7.01v-2.07zm0 3.517h2.07v2.07H7.01V11.7zm0 3.518h2.07v2.069H7.01v-2.07zM3.103 8.184h2.069v2.069h-2.07v-2.07zm0 3.517h2.069v2.07h-2.07V11.7zm2.069 3.518v2.069h-2.07v-2.07h2.07zM20 1.54h-3.518v2.345H15.31V1.539H4.69v2.346H3.518V1.539H0v3.518h20V1.54zM4.69.367H3.518v1.172H4.69V.367zm11.792 0H15.31v1.172h1.172V.367z"/></g><defs><clipPath id="fa"><path d="M0 0h20v20H0z"/></clipPath></defs></svg><svg viewBox="0 0 17 16" id="class" xmlns="http://www.w3.org/2000/svg"><g clip-path="url(#ga)"><circle cx="8.033" cy="8" r="8"/><path d="M9.803 12.66l-.46.13a4.888 4.888 0 01-2.889.352.823.823 0 01-.477-.236.876.876 0 01-.175-.789.8.8 0 01.855-.627c.255-.001.498.041.753.04a4.423 4.423 0 001.602-.388 4.612 4.612 0 001.921-1.5c.162-.235.304-.484.423-.744.104-.236.278-.435.5-.568a.8.8 0 01.877.066.772.772 0 01.272 1.061 4.531 4.531 0 01-.727 1.334 6.59 6.59 0 01-1.062 1.028l-.274.158.14.053 3.342.897a.792.792 0 01.629.71.897.897 0 01-.42.876.727.727 0 01-.572.062l-2.404-.622-.266-.103c-.078-.028-.114-.007-.137.08l-.358 1.34c-.124.46-.238.916-.412 1.395a.759.759 0 01-.913.527.908.908 0 01-.509-.291.74.74 0 01-.159-.676l.482-1.802.397-1.63.02-.134z"/><path d="M5.56 4.006a3.444 3.444 0 013.833.247 3.454 3.454 0 01.165 5.342 3.443 3.443 0 01-3.81.476 3.454 3.454 0 01-1.454-1.386 3.443 3.443 0 011.267-4.68zm.237 3.824a1.711 1.711 0 002.597.466 1.707 1.707 0 00-.046-2.64 1.71 1.71 0 00-2.705.87 1.71 1.71 0 00.154 1.304z"/></g><defs><clipPath id="ga"><path transform="translate(.033)" d="M0 0h15.989v16H0z"/></clipPath></defs></svg><svg viewBox="0 0 14 12" id="down-pagination" xmlns="http://www.w3.org/2000/svg"><path d="M2.317 5.446L7.963 12H5.572L0 5.495 5.054 0h2.367L2.317 5.446z"/><path d="M1.994 4.727H14v1.897H1.994V4.727z"/></svg><svg viewBox="0 0 17 16" id="facebook" xmlns="http://www.w3.org/2000/svg"><path d="M16.067 8c0-4.418-3.58-8-7.995-8A7.997 7.997 0 00.077 8a8 8 0 006.746 7.903v-5.59h-2.03V8h2.03V6.237c0-2.005 1.193-3.112 3.02-3.112.874 0 1.789.156 1.789.156V5.25h-1.008c-.993 0-1.303.617-1.303 1.25V8h2.217l-.354 2.313H9.32v5.59A8 8 0 0016.067 8z"/></svg><svg viewBox="0 0 11 18" id="forward" xmlns="http://www.w3.org/2000/svg"><path d="M1 1l8 8-8 8"/></svg><svg viewBox="0 0 14 12" id="forward-pagination" xmlns="http://www.w3.org/2000/svg"><path d="M11.682 5.446L6.037 12h2.391L14 5.495 8.946 0H6.579l5.103 5.446z"/><path d="M12.006 4.727H0v1.897h12.006V4.727z"/></svg><svg viewBox="0 0 19 26" id="forward-preview" xmlns="http://www.w3.org/2000/svg"><g filter="url(#la)"><path d="M5 1l8 8-8 8"/></g><defs><filter id="la" x=".293" y=".293" width="18.121" height="25.414" filterUnits="userSpaceOnUse" color-interpolation-filters="sRGB"><feFlood flood-opacity="0" result="BackgroundImageFix"/><feColorMatrix in="SourceAlpha" values="0 0 0 0 0 0 0 0 0 0 0 0 0 0 0 0 0 0 127 0" result="hardAlpha"/><feOffset dy="4"/><feGaussianBlur stdDeviation="2"/><feComposite in2="hardAlpha" operator="out"/><feColorMatrix values="0 0 0 0 0 0 0 0 0 0 0 0 0 0 0 0 0 0 0.25 0"/><feBlend in2="BackgroundImageFix" result="effect1_dropShadow_1801_415"/><feBlend in="SourceGraphic" in2="effect1_dropShadow_1801_415" result="shape"/></filter></defs></svg><svg viewBox="0 0 16 17" id="input-file" xmlns="http://www.w3.org/2000/svg"><path d="M14.41 13.147c.708 1.024.38 2.253-.746 2.785l.746-2.785zm0 0L7.401 3.018m7.01 10.13L7.4 3.017m0 0a3.535 3.535 0 00-.642-.7c.192.173.364.368.512.581m.13.119L7.27 2.9m0 0l7.009 10.129M7.271 2.899l7.01 10.13m0 0c.727 1.053.369 2.393-.789 2.94v.001m.788-2.941l-.788 2.941m0 0a2.296 2.296 0 01-.612.188m.612-.188l-.612.188m0 0c.277-.035.541-.111.784-.226l-.784.226zM2.55 1.718c-.779.369-1.294.975-1.488 1.697-.193.722-.05 1.505.44 2.213L7.02 13.6c.007.01.03.031.07.042l.008.002-5.466-7.899c-.48-.693-.648-1.511-.438-2.296.21-.784.766-1.409 1.528-1.77a3.4 3.4 0 01.735-.247 3.535 3.535 0 00-.907.285zm7.72 13.389h-.001L5.562 8.303a1.231 1.231 0 01-.189-1.017c.096-.357.348-.632.673-.786.084-.04.171-.07.26-.093-.15.023-.295.066-.432.131-.342.162-.554.42-.632.713-.078.288-.02.629.19.934l4.707 6.802a2.6 2.6 0 00.566.587 2.298 2.298 0 01-.436-.468zM8.057 7.124a1.567 1.567 0 00-.309-.33 1.405 1.405 0 01.18.212l3.213 4.645a.125.125 0 00.079.044L8.058 7.124z"/></svg><svg viewBox="0 0 15 15" id="instagram" xmlns="http://www.w3.org/2000/svg"><path d="M15.001 7.5v3.249a4.203 4.203 0 01-2.722 3.896 5.614 5.614 0 01-2.114.353H4.532a4.49 4.49 0 01-2.562-.733 4.152 4.152 0 01-1.842-2.523 4.407 4.407 0 01-.117-.978V4.35c0-1.101.308-2.09 1.092-2.888A4.491 4.491 0 013.933.046C4.607-.014 5.28.003 5.94 0h4.303c.973 0 1.907.157 2.738.696a4.166 4.166 0 011.88 2.472c.086.353.13.715.132 1.079.016 1.083 0 2.166 0 3.25l.007.001zm-13.867 0v3.28c0 1.27.674 2.13 1.752 2.72a3.478 3.478 0 001.694.37h5.801a3.734 3.734 0 001.918-.492c1.015-.589 1.572-1.456 1.572-2.636a460.4 460.4 0 000-6.575c0-1.297-.734-2.153-1.841-2.721a3.422 3.422 0 00-1.597-.328h-5.77a3.774 3.774 0 00-1.78.393c-1.075.56-1.724 1.431-1.749 2.678-.027 1.104 0 2.207 0 3.31z"/><path d="M1.134 7.5v3.28c0 1.27.674 2.13 1.752 2.72a3.478 3.478 0 001.694.37h5.801a3.734 3.734 0 001.918-.492c1.015-.589 1.572-1.456 1.572-2.636a460.4 460.4 0 000-6.575c0-1.297-.734-2.153-1.841-2.721a3.422 3.422 0 00-1.597-.328h-5.77a3.774 3.774 0 00-1.78.393c-1.075.56-1.724 1.431-1.749 2.678-.027 1.104 0 2.207 0 3.31z"/><path d="M7.513 10.704a3.473 3.473 0 01-3.35-4.189A3.477 3.477 0 018.91 4.023a3.475 3.475 0 012.129 3.211 3.51 3.51 0 01-3.526 3.47zM5.116 7.226a2.405 2.405 0 002.844 2.41 2.403 2.403 0 001.784-3.273 2.404 2.404 0 00-4.628.864zm7.071-3.767a.74.74 0 11-.735-.766.764.764 0 01.735.766z"/></svg><svg viewBox="0 0 215 48" id="logo" xmlns="http://www.w3.org/2000/svg"><path d="M214.033 9.489c-.073.073-.182.184-.182.257-.183 2.317-1.203 4.156-2.843 5.738-.656.625-.692.625-.255 1.435a8.437 8.437 0 01.984 4.965c-.291 2.465-1.457 4.487-3.462 5.995-1.348.994-2.842 1.656-4.481 1.656-15.304 0-30.608-.037-45.912-.074h-17.381c.182-.735.328-1.434.51-2.096 1.202-4.892 2.441-9.784 3.644-14.713.073-.331.218-.441.51-.405h4.372c.328 0 .438.037.328.442-.728 2.905-1.457 5.774-2.15 8.68-.218.846-.4 1.692-.619 2.538-.073.331 0 .442.328.405h.474c18.51 0 37.021 0 55.568.037.801 0 1.494-.11 2.113-.663.583-.514.984-1.14 1.13-1.949.364-2.133-.838-3.972-3.025-4.303-1.421-.221-2.805-.148-4.19-.148-13.591-.036-27.183 0-40.774 0h-.656c.182-.662.328-1.25.474-1.839.255-.956.473-1.912.728-2.869.073-.33.219-.441.547-.441.656.074 1.348.074 2.004.11l16.033.11c3.461.038 6.887.074 10.348.074 2.988.037 5.976.074 8.964.074 2.769.037 5.538.073 8.308.073.911 0 1.749-.294 2.441-.956.838-.81 1.13-1.802 1.057-2.98-.073-1.323-1.13-2.721-2.442-3.015-.364-.074-.765-.147-1.166-.147h-17.016c-10.968-.037-21.936-.074-32.904-.074a9357.6 9357.6 0 00-32.102-.074c-.655 0-.655 0-.801.626-1.093 4.45-2.187 8.864-3.28 13.315l-2.405 9.71c-.036.147-.218.331-.364.331-1.567.037-3.134 0-4.737 0-.036 0-.109-.037-.219-.037.292-1.14.547-2.244.839-3.347 1.566-6.29 3.097-12.542 4.664-18.832.546-2.207 1.093-4.414 1.603-6.62.073-.368.255-.442.619-.442h87.342c1.021 0 1.932.405 2.77.846 1.494.81 2.587 1.986 3.388 3.457.656 1.25 1.203 2.502 1.239 3.936 0 .074.073.147.11.22-.073.368-.073.663-.073.994zM165.062 48c.218-1.103.473-2.207.692-3.347.036-.258.182-.368.437-.331.364.073.547-.11.692-.442 1.057-2.023 1.604-4.156 2.041-6.363.036-.257.109-.404.401-.404h5.283c.073 0 .11.037.219.037-.182.845-.364 1.728-.547 2.574-.291 1.435-.619 2.832-.911 4.267-.036.257 0 .368.292.368.291 0 .328.11.255.367a73.25 73.25 0 00-.583 2.759c-.036.184 0 .331 0 .515h-1.239c.146-.81.328-1.618.474-2.464h-5.867c-.146.846-.255 1.655-.401 2.464h-1.238zm8.016-9.71c-.838 0-1.64.037-2.405 0-.364 0-.474.147-.583.478-.474 1.581-1.02 3.126-1.53 4.671-.11.294-.219.589-.328.92h3.571c.437-2.023.838-4.01 1.275-6.07zM98.232 29.388c1.968-7.981 3.935-15.963 5.903-23.981h-.765c-32.503 0-65.042 0-97.545.037-1.931 0-2.842-1.361-2.842-2.87.036-1.176.729-2.243 1.822-2.5.218-.037.437-.074.62-.074h105.487c-.255 1.103-.546 2.207-.801 3.274-.146.662-.255 1.36-.437 2.023-.328 1.36-.729 2.721-1.094 4.082-.838 3.31-1.676 6.62-2.477 9.931-.802 3.237-1.567 6.51-2.369 9.747-.036.11-.182.295-.291.295-1.713.036-3.462.036-5.211.036z"/><path d="M36.653 29.572H5.79c-1.239 0-2.223-.699-2.587-1.876-.328-.993.11-2.096 1.093-2.795.51-.368 1.093-.442 1.676-.442h61.325c1.458 0 2.843-1.324 3.061-2.758.182-1.324-.11-2.428-1.093-3.347-.583-.515-1.239-.846-2.04-.846H34.212c-1.094 0-1.895-.441-2.369-1.471-.51-1.067-.291-2.06.474-2.87.474-.514 1.057-.809 1.822-.809h32.648c4.19 0 7.725 2.98 8.49 7.063.51 2.684-.218 5.075-1.967 7.135-1.421 1.692-3.243 2.612-5.393 2.98-.182.036-.365 0-.51 0-10.276.036-20.515.036-30.754.036zm114.999 15.926h-2.005c-.291 0-.4-.073-.328-.404l1.64-7.724c.037-.11.255-.295.365-.295 1.275 0 2.587 0 3.862.074.911.037 1.53.625 1.749 1.508.182.736-.182 1.618-.874 1.986-.11.074-.256.11-.401.22-.219.148-.255.258 0 .442.328.258.656.515.838.846.437.736.109 1.435-.292 2.097-.437.735-1.202 1.03-2.004 1.14-.874.11-1.749.11-2.587.147.037 0 .037 0 .037-.037zm.91-1.177h1.094c.655-.036 1.166-.257 1.457-.882.292-.7 0-1.435-.765-1.545-.875-.11-1.786-.074-2.696-.074-.073 0-.183.147-.183.22-.145.626-.291 1.288-.437 1.913-.036.221.036.368.292.368h1.238zm-.765-3.641a57.564 57.564 0 002.77-.147c.619-.074.983-.699.91-1.398-.072-.552-.437-.846-1.129-.846h-1.385c-.656 0-.692 0-.801.662-.146.515-.219 1.067-.365 1.729zm-76.74 4.819h-2.04c-.292 0-.365-.11-.292-.368l1.64-7.724c.036-.147.255-.294.364-.294 1.276 0 2.588 0 3.863.073.984.074 1.64.736 1.785 1.655.11.589-.291 1.619-1.13 1.95-.145.037-.218.184-.327.294.109.11.182.22.291.294.911.589 1.093 1.398.693 2.391-.438 1.03-1.276 1.508-2.296 1.618-.838.11-1.713.11-2.55.148v-.037zm-.62-1.177c1.021 0 1.932.037 2.807 0 .583 0 1.056-.331 1.275-.883.291-.699 0-1.434-.729-1.545-.656-.11-1.312-.073-2.004-.073-.838 0-.874 0-1.057.846-.073.515-.182 1.066-.291 1.655zm2.552-6.032c-.328 0-.656-.037-.948 0-.146.037-.328.184-.364.294a21.058 21.058 0 00-.365 1.618c-.072.258 0 .405.328.405.583 0 1.203.037 1.786 0a2.79 2.79 0 00.947-.258c.437-.22.656-.845.547-1.36-.11-.442-.474-.7-1.02-.7h-.912zm118.096-1.177a1114.39 1114.39 0 01-1.093 5.223c.037.036.073.073.146.073.219-.184.437-.33.619-.551.948-1.14 1.895-2.281 2.879-3.384.219-.258.401-.479.619-.736.292-.405.62-.699 1.166-.588.219.036.474 0 .766 0-.146.698-.292 1.324-.401 1.986-.437 2.06-.875 4.082-1.312 6.142-.036.11-.219.294-.328.294-1.384 0-1.202.221-.911-1.066.255-1.288.547-2.575.838-3.862.037-.11-.036-.258-.073-.368-.109.073-.218.073-.291.184-1.275 1.508-2.551 3.053-3.826 4.56-.437.516-1.13.773-1.713.59-.073-.038-.182-.221-.145-.332.255-1.25.546-2.501.801-3.752.292-1.324.547-2.611.838-3.935.073-.294.182-.405.474-.368.219-.11.547-.11.947-.11zm-33.998 0a617.713 617.713 0 01-1.093 5.186c.036.037.073.073.146.073.218-.184.437-.33.619-.551.947-1.14 1.895-2.28 2.879-3.384.218-.258.437-.515.619-.773.292-.367.62-.662 1.13-.588.255.037.473 0 .801 0-.182.846-.328 1.655-.51 2.427-.401 1.876-.801 3.789-1.202 5.665-.037.257-.146.294-.365.294-1.311-.037-1.166.184-.874-1.104.255-1.287.546-2.574.838-3.861.036-.11-.037-.258-.037-.368-.109.036-.218.073-.291.184-1.275 1.508-2.587 3.052-3.826 4.56-.437.515-1.093.773-1.713.589-.072-.037-.182-.22-.145-.331.4-1.913.801-3.825 1.239-5.738.145-.625.291-1.287.4-1.913.037-.294.183-.404.474-.404.182.037.51.037.911.037zm-55.677 3.421c-.073 1.986-1.203 4.156-3.207 4.892-1.64.588-3.389.22-4.336-1.288-.51-.846-.656-1.802-.437-2.795.218-.993.51-1.913 1.13-2.722.619-.81 1.42-1.324 2.404-1.582.948-.257 1.895-.184 2.806.331 1.057.626 1.676 1.913 1.64 3.164zm-6.56 1.618c0 .883.256 1.655 1.094 2.06.874.404 1.712.294 2.441-.295.802-.588 1.166-1.47 1.385-2.427.182-.736.182-1.508-.146-2.244-.583-1.324-2.587-1.434-3.607-.33-.802.919-1.166 2.022-1.166 3.236zm-59.065-1.546c-.182 1.84-.838 3.494-2.55 4.524-1.713.993-3.9.81-4.993-.956-.546-.883-.656-1.876-.437-2.869.219-.956.51-1.876 1.13-2.685a4.176 4.176 0 012.404-1.545c.948-.257 1.895-.184 2.77.331 1.202.662 1.603 1.803 1.676 3.2zm-1.53-.037v-.183c0-.994-.438-1.73-1.166-2.023a2.493 2.493 0 00-2.697.588c-.838.92-1.202 2.06-1.202 3.347.036.81.255 1.508 1.02 1.876.802.405 1.567.368 2.295-.11 1.276-.846 1.64-2.097 1.75-3.495zm33.595.037c-.182 1.84-.838 3.494-2.55 4.524-1.713.993-3.9.81-4.992-.956-.547-.883-.656-1.876-.438-2.869.22-.956.51-1.876 1.13-2.685a4.176 4.176 0 012.405-1.545c.947-.257 1.895-.184 2.77.331 1.202.662 1.639 1.803 1.675 3.2zm-6.558 1.508c0 .92.255 1.545.765 1.913.91.625 2.113.552 2.915-.22.984-.957 1.384-2.134 1.348-3.458 0-.956-.474-1.692-1.202-1.95a2.398 2.398 0 00-2.66.589c-.802.846-1.166 1.95-1.166 3.126zM7.831 44.432c1.057-.074 1.24-.22 1.458-1.25.4-1.876.801-3.789 1.239-5.665.036-.147.218-.405.327-.405 1.75-.036 3.535 0 5.357 0-.182.846-.328 1.619-.51 2.428-.401 1.876-.802 3.789-1.203 5.664-.072.258-.145.331-.4.331h-.839c-.291 0-.328-.11-.291-.367l1.312-6.18c.146-.588.073-.662-.51-.662h-1.494c-.328 0-.474.074-.547.442a124.107 124.107 0 01-1.202 5.296c-.328 1.177-1.057 1.692-2.114 1.655-.218 0-.437-.036-.62-.11a.507.507 0 01-.181-.294c.072-.331.182-.589.218-.883zm133.071-7.319c-.219.993-.401 1.95-.583 2.905-.364 1.73-.765 3.458-1.13 5.187-.036.257-.145.294-.364.294h-.838c-.292 0-.364-.11-.292-.368l1.312-6.18c.146-.624.11-.661-.546-.661h-1.494c-.328 0-.438.11-.51.441-.401 1.802-.729 3.605-1.239 5.333-.365 1.398-1.312 1.84-2.733 1.545a1.791 1.791 0 00-.255-.11c.073-.331.182-.699.255-1.03 1.093-.11 1.312-.294 1.53-1.471.401-1.84.765-3.715 1.166-5.554.037-.147.219-.331.365-.331h5.356zm45.62-.001c-.219 1.14-.438 2.17-.693 3.31.146.037.292.037.401.037h2.769c.292 0 .438-.11.474-.367.182-.883.364-1.73.547-2.612.036-.258.145-.405.437-.368h1.166c-.182.846-.328 1.618-.51 2.428-.401 1.876-.802 3.788-1.203 5.664-.036.258-.145.331-.4.331h-.839c-.291 0-.364-.11-.291-.368.219-.993.437-1.95.619-2.942.11-.478.037-.552-.4-.552h-2.588c-.327 0-.473.074-.546.405-.219 1.066-.474 2.096-.656 3.163-.036.257-.146.33-.364.294h-.401c-1.02 0-.838 0-.656-.81.474-2.39 1.02-4.78 1.53-7.172.073-.33.183-.44.51-.44h1.094zm-9.549 7.246h4.81a6.59 6.59 0 01-.255.994c-.037.11-.219.184-.328.184h-5.575c-.292 0-.365-.11-.292-.405.547-2.575 1.093-5.113 1.64-7.687.036-.148.255-.332.364-.332 1.749-.036 3.535 0 5.284 0 .255 0 .328.037.255.332-.255 1.03-.109.845-1.02.845h-3.134c-.328 0-.474.11-.51.442-.073.588-.219 1.177-.365 1.802.219 0 .401.037.583.037h3.243c.547 0 .547 0 .401.552v.036c-.036.479-.291.626-.801.626-1.094-.037-2.187 0-3.28 0-.291 0-.437.073-.51.404a24.08 24.08 0 00-.51 2.17zm-49.552-3.825c.255 0 .401.037.583.037h3.352c.292 0 .401.037.292.368-.255.883-.037.81-1.02.81-1.021 0-2.004.036-3.025 0-.401 0-.546.146-.619.477-.109.7-.255 1.361-.401 2.097.255 0 .401.036.583.036h3.717c.364 0 .51.037.364.479-.255.772-.036.735-.911.735h-5.101c-.328 0-.437-.073-.365-.441.547-2.538 1.094-5.076 1.64-7.65.037-.11.219-.295.328-.295h5.466c.036 0 .073.037.182.074-.073.294-.109.625-.219.92-.036.11-.291.183-.437.183-1.166 0-2.295.037-3.461 0-.401 0-.584.074-.656.552 0 .441-.146.993-.292 1.618zm-13.52-3.347c-.073.331-.109.662-.255.92-.036.11-.291.183-.437.183-1.166 0-2.296.037-3.462 0-.401 0-.583.074-.619.515a5.775 5.775 0 01-.292 1.325c-.109.367.037.44.365.44h3.898a6.356 6.356 0 01-.255.994c-.036.11-.291.184-.437.184h-3.461c-.328 0-.511.074-.583.441-.11.589-.256 1.177-.365 1.803-.073.33.109.404.401.404h4.336a6.59 6.59 0 01-.255.993c-.036.11-.219.184-.328.184h-5.648c-.291 0-.328-.147-.255-.404.437-2.06.911-4.157 1.348-6.216.11-.479.182-.994.292-1.435.036-.147.218-.331.364-.331 1.786-.037 3.571 0 5.357 0 .109-.074.182-.037.291 0zm29.15 7.136h4.409c.255 0 .401.037.292.368-.255.92-.037.809-1.021.809h-4.992c-.4 0-.51-.074-.4-.515.546-2.538 1.056-5.076 1.603-7.577.036-.11.218-.294.328-.294h5.465c.037 0 .073.037.183.073a9.395 9.395 0 01-.255.957c-.037.11-.256.147-.401.147-1.166 0-2.296.037-3.462 0-.401 0-.583.073-.656.551-.073.552-.218 1.104-.364 1.692.255 0 .401.037.583.037h3.352c.292 0 .401.037.292.368-.255.883-.037.81-1.021.81-1.02 0-2.004.036-3.024 0-.401 0-.547.146-.619.477 0 .662-.146 1.361-.292 2.097zm65.186-7.136c-.072.295-.109.626-.218.846-.073.11-.292.221-.438.221a56.577 56.577 0 01-3.534 0c-.328 0-.51.074-.547.441-.072.479-.182.957-.291 1.398-.037.11-.037.22-.037.405h3.899c.292 0 .401.036.292.367-.255.883-.037.81-1.02.81h-3.061c-.292 0-.474.073-.547.404-.109.626-.255 1.214-.401 1.84-.036.11 0 .183.037.33.182 0 .401.037.583.037h3.717c.327 0 .51.074.327.405-.036.11-.072.257-.109.368-.036.294-.182.404-.474.404h-5.502c-.328 0-.4-.073-.328-.404.547-2.538 1.094-5.076 1.64-7.65.037-.148.219-.332.328-.332 1.822-.037 3.644 0 5.466 0 .073.037.109.074.218.11zm-186.197 6.4h-3.317c-.11 0-.255.11-.328.221-.291.478-.51.956-.801 1.398-.073.147-.292.257-.474.294-.364.037-.729 0-1.203 0 .51-.92.948-1.802 1.422-2.648.546-1.03 1.13-2.06 1.712-3.09.437-.81.875-1.618 1.348-2.39a.554.554 0 01.401-.221c.437-.037.838 0 1.276 0 .218 0 .328.036.364.294.364 2.39.765 4.781 1.13 7.172.036.294.072.589.145.92-.4 0-.801.036-1.166-.037-.145-.037-.291-.258-.328-.405-.073-.478-.11-.956-.182-1.508zm-2.734-1.177h1.968c.546 0 .62-.11.546-.662l-.437-2.758c0-.074-.073-.147-.11-.258-.072.074-.181.11-.218.184-.546.993-1.093 1.986-1.603 2.98-.11.146-.11.294-.146.514zm76.229 3.089h-1.312c-.11 0-.219-.147-.255-.257-.255-.846-.474-1.692-.729-2.501-.11-.405-.218-.773-.692-.957-.4-.147-.583-.073-.692.368-.22 1.03-.474 2.023-.656 3.053-.037.294-.183.331-.401.331h-.4c-.803 0-.803 0-.62-.809.51-2.39 1.02-4.818 1.53-7.21.036-.257.146-.404.437-.367h1.166a39.561 39.561 0 00-.364 1.802c-.11.442-.182.883-.292 1.324-.072.405.073.589.474.442.292-.11.583-.294.765-.515.474-.699.911-1.435 1.385-2.133.546-.773 1.312-1.03 2.295-.92-.109.331-.182.625-.291.883-.036.073-.219.184-.328.147-.474-.037-.692.22-.91.588a15.72 15.72 0 01-1.094 1.619c-.182.257-.51.441-.802.588-.218.11-.255.22-.072.331.765.368 1.02 1.067 1.202 1.84.219.772.437 1.544.656 2.353zM55.966 39.43c-.51.037-.948.11-1.422.147-.036-.074-.109-.11-.145-.184-.182-1.14-1.385-1.324-2.26-1.104-.91.221-1.457.846-1.821 1.692-.401.957-.583 1.913-.365 2.943.146.772.583 1.36 1.385 1.508.874.147 1.64-.11 2.186-.883.182-.22.292-.515.474-.809.437.074.91.147 1.385.22-.766 2.245-3.207 3.385-5.248 2.465-.947-.441-1.493-1.25-1.676-2.28-.291-1.582.037-3.053.911-4.377 1.02-1.545 3.243-2.244 4.92-1.508.947.367 1.493 1.103 1.676 2.17zm33.01 0c-.437.037-.874.11-1.312.147-.073 0-.182-.11-.182-.184-.146-.589-.437-.956-1.02-1.104-.656-.147-1.24-.11-1.859.221-1.02.552-1.348 1.545-1.566 2.575-.11.588-.11 1.25 0 1.876.109.772.583 1.324 1.348 1.471.838.184 1.603-.11 2.15-.81.182-.22.291-.514.473-.845.438.073.911.147 1.385.22-.729 2.244-3.28 3.421-5.247 2.465-.911-.442-1.458-1.25-1.64-2.244-.291-1.581.037-3.053.911-4.377 1.02-1.545 3.207-2.244 4.92-1.508.874.22 1.566 1.177 1.639 2.097zm-87.195-.59c.4-1.03 1.166-1.544 2.077-1.802.947-.257 1.858-.073 2.696.442 1.276.772 1.312 2.464.073 3.31-.182.11-.328.22-.51.294-.328.147-.291.294-.036.442 1.457.882 1.093 2.648-.11 3.457-1.42.92-2.951.993-4.445.184-.4-.22-.656-.736-.947-1.14-.037-.037.072-.258.145-.294.328-.148.693-.221 1.02-.295.073 0 .256.11.328.221.547.883 2.187 1.103 2.988.405.401-.368.547-.92.401-1.398-.182-.589-.656-.736-1.202-.81-.146-.036-.328 0-.547 0 .073-.404.146-.735.219-1.103.036-.073.218-.147.328-.184.291-.073.656-.036.947-.147.62-.22.875-.735.802-1.397-.037-.405-.401-.773-.911-.81-.692-.073-1.421-.036-1.822.7-.036.073-.182.146-.292.146-.328-.036-.728-.147-1.202-.22zm38.44 6.732c0-.11.037-.22.037-.294.036-.736.036-.772.765-.736.765.037 1.713-.993 1.421-1.876-.51-1.618-.947-3.31-1.42-4.965a4.72 4.72 0 00-.147-.589c.474 0 .875-.036 1.276 0 .109 0 .291.184.291.295.292 1.25.547 2.464.802 3.715.036.184.145.33.255.478.146-.11.328-.184.437-.331a333.454 333.454 0 012.733-3.825c.11-.148.364-.258.547-.295.364-.037.765 0 1.166 0 0 .074 0 .147-.037.184-1.895 2.501-3.753 5.04-5.648 7.54-.583.81-1.457.994-2.478.7zm17.781-.073c.51-2.428 1.02-4.782 1.494-7.21h-2.514c.073-.404.146-.735.219-1.03.036-.073.182-.146.255-.146h6.267c-.073.367-.11.662-.219.956-.036.11-.255.22-.4.22-.693.038-1.385 0-2.114 0-.4 1.913-.802 3.752-1.166 5.628-.11.442-.146.883-.291 1.324-.037.11-.219.258-.328.258-.328.037-.73 0-1.203 0zm62.893-7.209h-2.514c.072-.368.145-.7.218-1.03 0-.074.146-.147.219-.147h6.304c-.073.367-.11.662-.219.956-.036.11-.255.22-.401.22-.692.038-1.384 0-2.113 0-.474 2.318-.984 4.562-1.421 6.842-.073.294-.146.405-.438.405h-1.166c.547-2.428 1.021-4.782 1.531-7.246zm-89.236-1.104c-.073.257-.11.588-.182.883-.037.11-.22.183-.365.183-.546.037-1.093 0-1.676 0-.146 0-.328 0-.474.037-.473 2.28-.983 4.561-1.42 6.805-.074.294-.147.404-.438.404h-1.13a354.8 354.8 0 01.547-2.574c.291-1.435.62-2.833.91-4.267.074-.257-.036-.405-.327-.405h-2.15c.073-.367.11-.662.219-.993.036-.073.182-.184.291-.184h6.158c-.036.037-.036.074.037.11z"/></svg><svg viewBox="0 0 136 136" id="play-video" xmlns="http://www.w3.org/2000/svg"><g filter="url(#pa)"><circle cx="67.906" cy="67.906" r="67.906" fill-opacity=".65"/></g><path d="M88.278 67.906l-28.52 16.467V51.44l28.52 16.466z"/><defs><filter id="pa" x="-4" y="-4" width="143.812" height="143.813" filterUnits="userSpaceOnUse" color-interpolation-filters="sRGB"><feFlood flood-opacity="0" result="BackgroundImageFix"/><feGaussianBlur in="BackgroundImageFix" stdDeviation="2"/><feComposite in2="SourceAlpha" operator="in" result="effect1_backgroundBlur_2_597"/><feBlend in="SourceGraphic" in2="effect1_backgroundBlur_2_597" result="shape"/></filter></defs></svg><svg viewBox="0 0 18 18" id="search" xmlns="http://www.w3.org/2000/svg"><path d="M13.213 11.619a7.267 7.267 0 001.414-4.306C14.627 3.28 11.35 0 7.32 0S.012 3.28.012 7.313c0 4.032 3.278 7.312 7.308 7.312 1.61 0 3.094-.53 4.303-1.416L16.41 18 18 16.41l-4.787-4.791zm-5.893.756c-2.79 0-5.06-2.27-5.06-5.062A5.066 5.066 0 017.32 2.25a5.066 5.066 0 015.059 5.063 5.066 5.066 0 01-5.06 5.062z"/></svg><svg viewBox="0 0 4 4" id="slider-button" xmlns="http://www.w3.org/2000/svg"><circle cx="2" cy="2" r="2"/></svg><svg viewBox="0 0 10 10" id="slider-button-active" xmlns="http://www.w3.org/2000/svg"><circle cx="5" cy="5" r="2"/><circle opacity=".5" cx="5" cy="5" r="4.75"/></svg><svg viewBox="0 0 20 20" id="speaker" xmlns="http://www.w3.org/2000/svg"><g clip-path="url(#ta)"><path d="M4.251 4.138L2.996 2.883a.586.586 0 11.828-.829L5.08 3.31a.586.586 0 11-.829.828zM1.527 6.904h1.255a.586.586 0 010 1.171H1.527a.586.586 0 010-1.171zm6.904-4.477a.586.586 0 01-.586-.586V.586a.586.586 0 011.172 0V1.84a.586.586 0 01-.586.586zm10.456 12.18c.229.228.229.6 0 .828l-2.51 2.51a.586.586 0 01-.829 0l-.982-.981 3.34-3.34.981.983zm-10.145.473l4.115 1.936-2.813 2.812a.586.586 0 01-.829 0L7.02 17.632a.586.586 0 010-.829l1.723-1.723zm2.413-13.026a.586.586 0 01.944.165l4.978 10.577-3.34 3.34-10.576-4.978a.586.586 0 01-.165-.945l8.159-8.159z"/></g><defs><clipPath id="ta"><path transform="matrix(-1 0 0 1 20 0)" d="M0 0h20v20H0z"/></clipPath></defs></svg><svg viewBox="0 0 19 11" id="vk" xmlns="http://www.w3.org/2000/svg"><path d="M10.745 2.79c0 .455-.018.884-.021 1.308-.006.231.022.462.081.686a.69.69 0 00.231.364.226.226 0 00.202.039.853.853 0 00.329-.194 4.46 4.46 0 00.604-.683 12.931 12.931 0 001.54-2.8c.071-.168.14-.333.205-.504a.56.56 0 01.263-.303.645.645 0 01.239-.04h3.266c.09.012.178.036.262.071a.318.318 0 01.229.317c0 .18-.036.358-.105.524a6.34 6.34 0 01-.662 1.206c-.49.749-1.05 1.448-1.575 2.163-.176.238-.341.484-.499.733a.718.718 0 00-.12.468.75.75 0 00.21.424c.191.204.385.406.59.597a16.287 16.287 0 011.541 1.57c.223.265.415.554.572.862a.949.949 0 01.08.262.475.475 0 01-.23.523c-.175.11-.377.172-.585.176-.774.02-1.549.015-2.32.06a1.944 1.944 0 01-1.36-.466 6.32 6.32 0 01-.788-.77c-.263-.285-.507-.573-.788-.845a1.785 1.785 0 00-.401-.296.466.466 0 00-.596.094 1.28 1.28 0 00-.265.54 3.822 3.822 0 00-.14.926 2.332 2.332 0 01-.023.233.536.536 0 01-.368.432c-.127.053-.264.08-.401.081h-1.05a5.14 5.14 0 01-1.789-.343 6.869 6.869 0 01-2.688-1.832c-.73-.801-1.38-1.67-1.943-2.597A36.736 36.736 0 01.11 1.292.64.64 0 01.06.967.227.227 0 01.194.773.927.927 0 01.611.674h2.61a.802.802 0 01.698.524c.225.594.497 1.17.811 1.722.34.615.724 1.205 1.147 1.767a2.3 2.3 0 00.525.54.423.423 0 00.473.046.44.44 0 00.181-.209 2.16 2.16 0 00.173-.688c.058-.554.07-1.11.035-1.665a5.907 5.907 0 00-.103-.987c-.016-.081-.044-.16-.06-.241a.536.536 0 00-.284-.35 1.339 1.339 0 00-.596-.197c-.06 0-.081-.032-.055-.084a.576.576 0 01.09-.144c.191-.208.45-.343.732-.38.407-.07.82-.1 1.234-.091.46 0 .921 0 1.383.029.201.012.4.045.594.096a.699.699 0 01.562.66c.022.253.03.506.023.76-.005.342-.026.688-.04 1.007z"/></svg><svg viewBox="0 0 69 20" id="xpage" xmlns="http://www.w3.org/2000/svg"><path fill-rule="evenodd" clip-rule="evenodd" d="M17.397 16.061c-.196.722-.476 1.096-1.377 1.304-1.997.38-3.994.478-5.992.477-1.997 0-3.994-.097-5.99-.477-.902-.207-1.182-.582-1.378-1.304-.395-2.02-.496-4.04-.495-6.061-.001-2.02.1-4.04.495-6.061.196-.722.476-1.097 1.377-1.304 1.997-.38 3.994-.477 5.991-.477 1.998 0 3.995.097 5.992.477.902.207 1.18.583 1.377 1.304.395 2.02.496 4.04.496 6.061 0 2.02-.1 4.04-.496 6.061zm2.66-6.07a36.273 36.273 0 00-.579-6.43A3.699 3.699 0 0016.573.592 36.65 36.65 0 0010.043 0h-.029a36.642 36.642 0 00-6.53.593A3.699 3.699 0 00.579 3.56 36.261 36.261 0 000 9.991v.018a36.21 36.21 0 00.579 6.43 3.7 3.7 0 002.905 2.968c2.177.395 4.353.591 6.53.593h.029a36.636 36.636 0 006.53-.593 3.7 3.7 0 002.905-2.967 36.23 36.23 0 00.579-6.431V9.99z"/><path fill-rule="evenodd" clip-rule="evenodd" d="M15.127 13.336l-3.315-3.328L13.3 8.516c.112-.081.211-.18.29-.292l1.24-1.244c.311-.298.559-.598.559-1.029 0-.678-.552-1.229-1.233-1.229-.388 0-.704.193-.964.433l-.008.012-1.569 1.575-.005-.006-1.53 1.534-1.527-1.534-.006.006L6.98 5.167l-.01-.007c-.305-.289-.576-.438-.964-.438a1.23 1.23 0 00-1.233 1.23c0 .43.272.72.56 1.028l1.238 1.244c.08.113.178.21.29.292l1.488 1.492-3.315 3.328-.002-.007c-.171.211-.26.5-.26.792 0 .679.552 1.229 1.234 1.229.435 0 .752-.245 1.036-.564l1.186-1.192c.156-.096.29-.224.388-.377l1.464-1.47 1.464 1.47c.099.153.232.28.387.377l1.187 1.192c.274.27.601.564 1.036.564.681 0 1.234-.55 1.234-1.229 0-.293-.084-.57-.255-.782l-.007-.003zm53.851 1.287a1.148 1.148 0 00-.07-.29.372.372 0 00-.116-.163.253.253 0 00-.153-.05h-5.113v-3.378h4.417a.27.27 0 00.153-.046.338.338 0 00.116-.152c.031-.072.054-.165.07-.283.015-.117.023-.265.023-.444 0-.173-.008-.319-.023-.44a1.077 1.077 0 00-.07-.286.375.375 0 00-.116-.158.253.253 0 00-.153-.05h-4.417V5.959h5.076a.236.236 0 00.149-.05.397.397 0 00.11-.163c.032-.074.055-.17.07-.291a3.51 3.51 0 00.024-.44c0-.184-.008-.337-.023-.457a1.22 1.22 0 00-.07-.297.356.356 0 00-.111-.161.25.25 0 00-.149-.047h-6.784a.761.761 0 00-.515.18c-.14.121-.21.317-.21.588v10.436c0 .272.07.468.21.588.139.12.31.18.515.18h6.821a.252.252 0 00.153-.05.369.369 0 00.116-.163c.031-.073.055-.17.07-.291.016-.12.023-.27.023-.449a3.57 3.57 0 00-.023-.448zM57.14 4.979a1.937 1.937 0 00-.429-.297 4.267 4.267 0 00-.771-.319 7.784 7.784 0 00-1.087-.251 8.468 8.468 0 00-1.38-.104c-.92 0-1.754.141-2.502.423a5.302 5.302 0 00-1.916 1.217 5.43 5.43 0 00-1.227 1.933c-.289.758-.433 1.613-.433 2.566 0 .923.135 1.748.406 2.476a5.034 5.034 0 001.172 1.852 5.063 5.063 0 001.871 1.16c.737.266 1.571.4 2.503.4a10.056 10.056 0 002.787-.396 8.25 8.25 0 00.726-.243c.195-.078.324-.184.388-.319.063-.135.095-.292.095-.472V9.818c0-.12-.016-.226-.046-.319a.67.67 0 00-.13-.238.56.56 0 00-.456-.198h-3.94a.228.228 0 00-.145.05.386.386 0 00-.109.153c-.03.068-.052.16-.067.274a3.326 3.326 0 00-.023.422c0 .324.03.553.09.688.06.134.144.202.253.202h2.21v2.853a2.89 2.89 0 01-.722.27c-.259.06-.52.09-.785.09-.54 0-1.035-.087-1.483-.261a3.072 3.072 0 01-1.15-.773 3.556 3.556 0 01-.744-1.272c-.177-.506-.266-1.092-.266-1.757 0-.605.087-1.158.26-1.658.176-.5.425-.929.75-1.286a3.334 3.334 0 011.172-.826 3.874 3.874 0 011.534-.293c.528 0 .993.054 1.393.162.4.108.744.225 1.032.35.289.127.52.243.695.351.174.108.3.162.379.162.054 0 .1-.015.14-.045a.336.336 0 00.099-.157c.027-.075.048-.175.063-.301s.022-.276.022-.45c0-.3-.018-.526-.054-.678a.741.741 0 00-.175-.355zm-19.333 6.448l1.686-5.05h.01l1.686 5.05h-3.382zm3.483-6.869a.887.887 0 00-.134-.275.477.477 0 00-.257-.152 2.321 2.321 0 00-.503-.064c-.215-.01-.504-.014-.866-.014-.313 0-.565.005-.755.014-.19.01-.34.03-.447.064a.459.459 0 00-.235.147.911.911 0 00-.13.253l-3.676 10.542a3.02 3.02 0 00-.138.514c-.018.129.003.229.064.299.062.07.172.114.332.133.16.018.381.027.664.027.263 0 .477-.006.64-.018a1.39 1.39 0 00.378-.069.394.394 0 00.193-.138.719.719 0 00.097-.216l.756-2.323h4.478l.801 2.388c.025.08.056.144.093.193a.366.366 0 00.193.114c.092.028.226.046.401.055a14.68 14.68 0 001.442-.009c.172-.015.291-.055.36-.119.067-.064.092-.16.073-.29a3.185 3.185 0 00-.138-.523L41.29 4.557zM30.077 8.721a1.898 1.898 0 01-.38.675 1.673 1.673 0 01-.645.44c-.264.105-.59.157-.98.157h-1.647V5.93h1.59c.255 0 .5.017.739.051.238.034.465.116.682.245.217.13.4.33.548.602.149.271.223.617.223 1.036a2.7 2.7 0 01-.13.856zm1.885-3.377a3.241 3.241 0 00-.943-.726 4.102 4.102 0 00-1.09-.394 8.663 8.663 0 00-.924-.138 9.724 9.724 0 00-.812-.033H24.81c-.247 0-.447.073-.598.218-.152.144-.228.362-.228.652v10.77a.27.27 0 00.056.166c.037.049.102.09.195.12.093.03.218.055.376.074.157.018.354.028.589.028.241 0 .44-.01.595-.028.154-.019.278-.043.37-.074a.42.42 0 00.2-.12.26.26 0 00.06-.167v-3.82h1.554c.792 0 1.48-.094 2.066-.278.584-.186 1.078-.455 1.48-.81.403-.355.71-.791.92-1.31.21-.517.315-1.113.315-1.785a4 4 0 00-.204-1.318 3.033 3.033 0 00-.594-1.027z"/></svg><svg viewBox="0 0 16 12" id="youtube" xmlns="http://www.w3.org/2000/svg"><path d="M14.938 2.8s-.146-1.103-.597-1.587c-.57-.638-1.209-.641-1.502-.679C10.743.372 7.596.372 7.596.372H7.59s-3.147 0-5.244.162c-.292.038-.93.041-1.502.679C.394 1.697.25 2.8.25 2.8S.098 4.097.098 5.39v1.213c0 1.294.15 2.59.15 2.59s.145 1.104.593 1.588c.571.638 1.32.616 1.655.685 1.2.122 5.097.159 5.097.159s3.15-.006 5.246-.166c.293-.037.931-.04 1.502-.678.451-.484.598-1.587.598-1.587s.149-1.294.149-2.59V5.39c0-1.294-.15-2.591-.15-2.591zM6.044 8.075V3.578l4.05 2.256-4.05 2.241z"/></svg></svg>